<svg width="184" height="184" viewBox="0 0 184 184" fill="none" xmlns="http://www.w3.org/2000/svg">
<g clip-path="url(#clip0)">
<path d="M142.041 84.6465H141.982H141.922C140.226 84.6465 134.663 85.182 134.634 92.1431C134.634 99.4017 140.732 99.7587 141.952 99.7587H142.011C142.785 99.7587 145.432 99.61 147.336 97.7358C148.675 96.4269 149.329 94.523 149.329 92.1431C149.3 85.182 143.737 84.6465 142.041 84.6465ZM144.213 96.8136C143.796 97.1706 143.112 97.5871 142.071 97.5871H141.863C140.821 97.5871 140.137 97.1706 139.721 96.8136C138.679 95.8914 138.144 94.2255 138.144 91.8754C138.174 87.2644 140.464 86.5801 141.833 86.5801H142.041C143.409 86.5801 145.7 87.2644 145.73 91.8754C145.789 94.2255 145.254 95.8914 144.213 96.8136Z" fill="#0C0C16"/>
<path d="M54.1342 102.02C52.7955 101.514 50.8321 100.057 49.6719 98.6882C48.244 97.052 44.7932 92.4707 44.7634 92.441C44.2874 91.8163 43.752 91.1023 43.1868 90.3586C41.6696 88.2762 39.9442 85.9558 38.2188 84.5576V99.7294H40.3011V91.8758L40.3309 91.9352C40.8961 92.6492 41.4911 93.4227 42.0861 94.1961C43.0678 95.4456 44.0495 96.7545 44.8824 97.7065C45.4476 98.3609 46.9351 99.9376 47.3515 100.295C49.2554 102.109 52.3493 103.269 55.4134 103.269C56.7521 103.269 58.0313 103.061 59.2212 102.674V102.585C58.7452 102.674 58.2097 102.734 57.6743 102.734C56.5141 102.674 55.2944 102.466 54.1342 102.02Z" fill="#0C0C16"/>
<path d="M41.0151 85.7473C42.443 87.3537 46.0129 91.935 46.0724 91.9945C46.5483 92.6192 47.0838 93.3332 47.649 94.0769C49.1662 96.1593 50.8916 98.4796 52.5873 99.8778V84.6466H50.5346V92.5299L50.4751 92.4704C49.9099 91.7565 49.3149 90.983 48.72 90.2096C47.7383 88.9601 46.7566 87.6512 45.9236 86.6992C45.3584 86.0448 43.752 84.4681 43.3355 84.1111C41.4316 82.2965 38.3377 81.166 35.2737 81.166C33.935 81.166 32.7748 81.3743 31.5848 81.7907V81.88C32.0608 81.761 32.5963 81.7312 33.1615 81.7312C34.3217 81.7312 35.4521 81.9692 36.5826 82.4155C37.9213 82.8914 39.8847 84.3491 41.0151 85.7473Z" fill="#0C0C16"/>
<path d="M121.455 92.3806C119.759 90.9229 117.885 90.5659 116.457 89.5842C115.476 88.781 115.505 87.7101 116.041 87.1746C117.261 85.8359 119.7 86.3714 120.325 86.5201C121.068 86.6986 121.455 86.9069 122.139 87.2341V85.5384C119.164 84.646 114.405 83.813 112.56 86.8474C111.876 88.0968 111.698 90.3577 113.691 91.6964C115.684 93.2731 119.135 94.0168 119.521 95.3257C119.789 96.0397 119.492 96.7239 119.016 97.1999C117.261 98.8658 114.226 97.8543 112.412 97.0214V98.836C114.405 99.7285 116.904 99.9665 119.135 99.4905C120.652 99.1038 122.377 97.7651 122.615 96.0694C122.883 94.3738 122.556 93.3028 121.455 92.3806Z" fill="#0C0C16"/>
<path d="M132.462 92.3806C130.766 90.9229 128.892 90.5659 127.464 89.5842C126.483 88.781 126.512 87.7101 127.048 87.1746C128.268 85.8359 130.707 86.3714 131.332 86.5201C132.075 86.6986 132.462 86.9069 133.146 87.2341V85.5384C130.171 84.646 125.412 83.813 123.567 86.8474C122.883 88.0968 122.705 90.3577 124.698 91.6964C126.691 93.2731 130.142 94.0168 130.528 95.3257C130.796 96.0397 130.499 96.7239 130.023 97.1999C128.238 98.8658 125.233 97.8543 123.419 97.0214V98.836C125.412 99.7285 127.911 99.9665 130.142 99.4905C131.659 99.1038 133.384 97.7651 133.652 96.0694C133.86 94.3738 133.533 93.3028 132.462 92.3806Z" fill="#0C0C16"/>
<path d="M101.732 99.3418H111.281V97.6164H105.034V92.8566H110.032V91.1907H105.034V86.7879H111.281V85.0625H101.732V99.3418Z" fill="#0C0C16"/>
<path d="M74.3037 92.3806C72.6081 90.9229 70.7339 90.5659 69.306 89.5842C68.3243 88.781 68.354 87.7101 68.8895 87.1746C70.1092 85.8359 72.5486 86.3714 73.1733 86.5201C73.917 86.6986 74.3037 86.9069 74.988 87.2341V85.5384C72.0131 84.646 67.2533 83.813 65.4089 86.8474C64.7247 88.0968 64.5462 90.3577 66.5394 91.6964C68.5325 93.2731 71.9834 94.0168 72.3701 95.3257C72.6378 96.0397 72.3403 96.7239 71.8644 97.1999C70.1092 98.8658 67.0749 97.8543 65.2602 97.0214V98.836C67.2533 99.7285 69.7522 99.9665 71.9834 99.4905C73.5005 99.1038 75.226 97.7651 75.4937 96.0694C75.7019 94.3738 75.3747 93.3028 74.3037 92.3806Z" fill="#0C0C16"/>
<path d="M54.6101 99.3418H64.1891V97.6164H57.9122V92.8566H62.9099V91.1907H57.9122V86.7879H64.1891V85.0625H54.6101V99.3418Z" fill="#0C0C16"/>
<path d="M83.2282 84.9141H76.9513V99.5206H80.2831C80.2831 99.5206 80.2831 99.1933 80.2831 98.6281L80.2236 94.1658C80.2236 94.1658 85.2214 94.4931 86.7385 92.4702C87.8392 91.191 87.9285 89.1978 87.4525 87.5914C86.8278 85.7768 85.0726 84.9438 83.2282 84.9141ZM83.9422 91.4885C83.0497 92.4702 81.5326 92.3214 80.2236 92.2322V86.7882C80.2236 86.7882 82.901 86.1932 84.0314 87.6807C84.6562 88.4839 84.6859 90.477 83.9422 91.4885Z" fill="#0C0C16"/>
<path d="M98.519 92.4406C99.5899 91.1911 99.6792 89.2277 99.2329 87.6511C98.638 85.8959 96.9125 85.063 95.0979 85.0332H88.9399V99.3422H92.2123L92.1825 94.0767C92.1825 94.0767 92.7775 94.1362 93.7592 94.0767L96.9125 99.372H100.512L96.8828 93.4818C97.4778 93.2438 98.162 92.9166 98.519 92.4406ZM95.8713 91.4886C94.9789 92.4406 93.4915 92.3216 92.242 92.2323V86.8776C92.242 86.8776 94.8599 86.2826 95.9606 87.7403C96.5853 88.5435 96.6151 90.5069 95.8713 91.4886Z" fill="#0C0C16"/>
<path d="M151.174 96.1592C150.133 96.1592 149.3 96.9624 149.3 97.9738C149.3 98.9853 150.133 99.7885 151.174 99.7885C152.155 99.7885 152.988 99.015 152.988 97.9738C152.988 96.9624 152.155 96.1592 151.174 96.1592ZM151.174 99.5803C150.252 99.5803 149.478 98.896 149.478 97.9738C149.478 97.0814 150.222 96.3674 151.174 96.3674C152.066 96.3674 152.81 97.1111 152.81 97.9738C152.81 98.896 152.066 99.5803 151.174 99.5803Z" fill="#0C0C16"/>
<path d="M151.68 97.9733C151.739 97.9138 152.007 97.8245 152.007 97.4676C152.007 97.1106 151.769 96.9023 151.352 96.9023H150.371V98.9252H150.698V98.122H151.263C151.59 98.122 151.68 98.2708 151.68 98.6278C151.68 98.7765 151.68 98.8657 151.739 98.955H152.126C152.037 98.8657 152.037 98.6278 152.037 98.3898C152.007 98.0625 151.828 97.9733 151.68 97.9733ZM151.323 97.8245H150.728V97.1701H151.323C151.501 97.1701 151.709 97.1998 151.709 97.4973C151.68 97.7056 151.561 97.8245 151.323 97.8245Z" fill="#0C0C16"/>
</g>
<defs>
<clipPath id="clip0">
<rect width="121.404" height="22.0734" fill="white" transform="translate(31.5848 81.166)"/>
</clipPath>
</defs>
</svg>
