<svg width="184" height="184" viewBox="0 0 184 184" fill="none" xmlns="http://www.w3.org/2000/svg">
<path d="M33.2375 97.778C33.2375 99.0125 34.244 100.019 35.5579 100.019H44.8345V97.6987H35.5579V95.3783H44.6808C45.9154 95.3783 47.1549 94.3718 47.1549 93.1372V93.2165V88.6551C47.1549 87.4205 45.9947 86.181 44.6808 86.181H35.5579C34.3234 86.181 33.2375 87.4156 33.2375 88.6551V97.778ZM44.8345 93.0628H35.5579V88.427H44.8345V93.0628Z" fill="#0C0C16"/>
<path d="M75.8324 86.1067H66.6352C65.4006 86.1067 64.1611 87.3412 64.1611 88.5807V97.778V97.6987C64.1611 98.9332 65.4006 100.019 66.6352 100.019H75.7581V102.339H66.4815V104.66H75.8374C77.072 104.66 78.0785 103.579 78.0785 102.339V88.5807C78.0735 87.3412 77.072 86.1067 75.8324 86.1067ZM75.7581 97.6987H66.4815V88.4221H75.7581V97.6987Z" fill="#0C0C16"/>
<path d="M57.9734 86.1067H51.0916C49.857 86.1067 48.6968 87.3462 48.6968 88.5807V100.024H51.0172V88.427H57.9734C59.208 88.427 60.2938 89.5872 60.2938 90.9011V100.024H62.6142V90.9011C62.6142 88.3477 60.5268 86.1067 57.9734 86.1067Z" fill="#0C0C16"/>
<path d="M91.2174 97.6987H81.9358V90.8218C81.9358 89.5872 83.1754 88.3477 84.4893 88.3477H91.2174V99.9447H93.5378V88.5807C93.5378 87.3412 92.6106 86.1067 91.3711 86.1067H84.4893C81.9358 86.1067 79.6204 88.3477 79.6204 90.9011V97.7829C79.6204 99.0175 80.9343 100.024 82.1689 100.024H86.1899C88.2822 100.019 90.4439 99.1712 91.2174 97.6987V100.019Z" fill="#0C0C16"/>
<path d="M143.788 79.1455H141.468V100.019H143.788V88.4221H150.744V86.1067H143.788V79.1455Z" fill="#0C0C16"/>
<path d="M111.317 97.778C111.317 99.0125 112.012 100.019 113.251 100.019H122.141V102.339H113.638V104.66H122.453C123.688 104.66 124.461 103.579 124.461 102.265V102.344V88.5807C124.461 87.3462 123.688 86.1067 122.453 86.1067H113.251C112.017 86.1067 111.317 87.3412 111.317 88.5807V97.778ZM122.141 97.6987H113.638V88.4221H122.141V97.6987Z" fill="#0C0C16"/>
<path d="M106.677 86.1067H97.7075C96.4729 86.1067 95.0797 87.3412 95.0797 88.5807V97.778V97.6987C95.0797 98.9332 96.4729 100.019 97.7075 100.019H108.997V79.1455H106.677V86.1067ZM106.677 97.6987H97.4001V88.4221H106.677V97.6987Z" fill="#0C0C16"/>
<path d="M126.008 97.778C126.008 99.0125 127.322 100.019 128.562 100.019H137.605V97.6987H128.329V95.3783H137.759C138.993 95.3783 139.926 94.3718 139.926 93.1372V93.2165V88.6551C139.926 87.4205 138.998 86.181 137.759 86.181H128.562C127.327 86.181 126.008 87.4156 126.008 88.6551V97.778ZM137.6 93.0628H128.324V88.427H137.6V93.0628Z" fill="#0C0C16"/>
</svg>
