<svg width="184" height="184" viewBox="0 0 184 184" fill="none" xmlns="http://www.w3.org/2000/svg">
<path d="M103.898 99.6659L104.19 100.394C102.816 101.06 101.603 101.348 100.562 101.346C97.7059 101.342 96.0581 99.021 96.0581 96.5015C96.0581 96.5377 96.0581 85.5605 96.0581 85.5605H94.0448V84.0686H96.0581V80.5874L99.0779 79.5927V84.0686H103.608V85.5605H99.0779C99.0779 85.5605 99.0779 96.6465 99.0779 96.9988C99.0779 101.848 103.898 99.6659 103.898 99.6659ZM110.151 96.9988C110.151 96.6465 110.151 85.5605 110.151 85.5605H114.681V84.0686H110.151V79.5927L107.131 80.5874V84.0686H105.118V85.5605H107.131C107.131 85.5605 107.131 96.5377 107.131 96.5015C107.131 99.021 108.645 101.342 111.501 101.346C112.541 101.348 113.755 101.06 115.129 100.394L114.837 99.6659C114.837 99.6659 110.151 101.848 110.151 96.9988ZM91.2368 85.9476C92.4938 87.2937 93.0382 89.0671 93.0382 91.5283C93.0382 91.8947 93.0382 92.523 93.0382 92.523H80.9587C80.9587 94.9262 81.2534 96.7943 82.2826 98.0535C82.8625 98.7631 83.6299 99.2929 84.5008 99.5942C85.4795 99.9329 86.5633 100.011 87.5902 99.9019C88.7011 99.7837 89.786 99.4262 90.7442 98.8578C91.0412 98.6815 91.332 98.492 91.6017 98.2771L92.2913 99.3078C91.3557 99.9781 90.3188 100.509 89.3074 100.844C88.2959 101.179 87.2347 101.346 86.1238 101.346C83.6096 101.346 81.5691 100.546 80.0023 98.9461C78.4352 97.3459 77.6519 95.2632 77.6519 92.6982C77.6519 90.0523 78.4031 87.9292 79.9058 86.3288C81.4083 84.7286 83.4109 83.9283 85.9133 83.9283C88.2052 83.9283 89.9798 84.6016 91.2368 85.9476ZM90.0183 91.031C90.0183 88.7514 89.8189 87.49 89.0236 86.5022C88.2284 85.5142 87.1762 85.0203 85.773 85.0203C84.3698 85.0203 83.2092 85.5896 82.2913 86.7274C81.3732 87.8657 81.0289 89.359 80.9587 91.031H90.0183ZM71.3958 98.3749C70.1614 99.4191 67.8036 99.9967 65.7128 99.9967C59.4171 99.9967 55.5286 95.3077 55.5286 88.7771C55.5286 82.4402 59.0721 77.5588 65.7126 77.5588C69.4667 77.5588 72.1387 78.8197 73.463 79.6682L74.1989 78.49C72.7545 77.603 69.5497 76.208 65.7126 76.208C57.1275 76.208 51.968 81.8463 51.968 88.7771C51.968 96.1976 56.4317 101.397 65.7126 101.346C71.419 101.315 74.919 99.1688 74.919 99.1688V90.5337H71.3958V98.3749ZM129.78 84.0686L124.243 96.9988L118.707 84.0686H115.687L122.734 100.48L119.21 107.94H121.224L131.793 84.0686H129.78Z" fill="#0C0C16"/>
</svg>
