<svg width="184" height="184" viewBox="0 0 184 184" fill="none" xmlns="http://www.w3.org/2000/svg">
<path d="M50.1015 89.26H55.8713L59.3211 95.3098L62.43 89.26H68.5423L62.0865 105.02H55.135L51.533 96.8142L46.4486 105.02H38.6921L50.1015 89.26Z" fill="#0C0C16"/>
<path d="M70.7926 98.5528L66.8166 89.26H73.7204L75.7076 93.648L80.0712 89.26H88.4295C88.4295 89.26 79.9313 93.4772 77.6434 97.2874C75.064 101.589 76.5421 105.02 76.5421 105.02H68.7218L70.7926 98.5528Z" fill="#0C0C16"/>
<path d="M98.8978 93.8876C98.6154 91.0528 100.446 89.2605 100.446 89.2605H108.05C111.316 89.2605 113.596 89.8127 115.237 90.7144C116.684 91.5088 117.697 92.5196 118.285 93.9751L118.301 94.0176C119.189 96.2094 118.243 97.8245 116.011 98.7934L123.594 105.021H114.672L109.001 99.7172H107.451L108.591 105.021C108.591 105.021 99.7205 102.152 98.8978 93.8876ZM109.576 95.834C111.218 95.834 112.05 95.2878 111.773 94.3742L111.761 94.3318C111.484 93.4021 110.367 92.9557 108.856 92.9557H105.999L106.615 95.834H109.576Z" fill="#0C0C16"/>
<path d="M115.905 89.26H124.916C128.181 89.26 130.62 89.8121 132.52 90.7139C134.197 91.5083 135.499 92.5191 136.507 93.9746L136.536 94.017C138.05 96.2089 137.569 97.8239 135.615 98.7928L144.987 105.02H136.066L128.87 99.7166H127.318L129.983 105.02H122.164L115.905 89.26ZM128.329 95.834C129.968 95.834 130.645 95.2878 130.109 94.3742L130.083 94.3318C129.538 93.4021 128.293 92.9557 126.783 92.9557H123.926L125.369 95.834H128.329Z" fill="#0C0C16"/>
<path d="M38.3792 108.679H38.9038L40.6295 110.91V108.679H41.1863V111.907H40.712L38.936 109.61V111.907H38.3792V108.679Z" fill="#0C0C16"/>
<path d="M44.0375 108.679H46.4261V109.186H44.604V110.025H46.2187V110.533H44.604V111.399H46.4492V111.907H44.0375V108.679Z" fill="#0C0C16"/>
<path d="M48.8957 108.679H49.5077L50.2757 111.072L51.0673 108.669H51.5464L52.3379 111.072L53.1059 108.679H53.7003L52.577 111.929H52.0893L51.2977 109.61L50.5061 111.929H50.0184L48.8957 108.679Z" fill="#0C0C16"/>
<path d="M60.6545 110.633L59.3752 108.679H60.0419L60.9444 110.108L61.855 108.679H62.504L61.2242 110.62V111.906H60.6545V110.633Z" fill="#0C0C16"/>
<path d="M64.6048 110.302V110.292C64.6048 109.383 65.3047 108.623 66.2941 108.623C67.2834 108.623 67.9737 109.374 67.9737 110.283V110.293C67.9737 111.201 67.2732 111.961 66.2844 111.961C65.2956 111.961 64.6048 111.209 64.6048 110.302ZM67.3799 110.302V110.292C67.3799 109.664 66.9243 109.144 66.285 109.144C65.6456 109.144 65.1992 109.654 65.1992 110.283V110.293C65.1992 110.919 65.6547 111.441 66.2941 111.441C66.9334 111.441 67.3799 110.929 67.3799 110.302Z" fill="#0C0C16"/>
<path d="M70.6828 108.679H72.118C72.5232 108.679 72.8404 108.798 73.0478 109.001C73.2177 109.177 73.3147 109.416 73.3147 109.698V109.708C73.3147 110.238 72.9969 110.556 72.5462 110.685L73.4155 111.908H72.7483L71.9562 110.781H71.2477V111.908H70.6828V108.679ZM72.0767 110.279C72.4814 110.279 72.7397 110.066 72.7397 109.739V109.73C72.7397 109.384 72.4905 109.194 72.0719 109.194H71.2477V110.279H72.0767Z" fill="#0C0C16"/>
<path d="M76.0324 108.679H76.5984V110.301L78.1311 108.679H78.8257L77.4864 110.067L78.8852 111.907H78.1997L77.1 110.454L76.5984 110.97V111.907H76.0324V108.679Z" fill="#0C0C16"/>
<path d="M84.7959 108.679H86.2317C86.6363 108.679 86.9541 108.798 87.161 109.001C87.3309 109.177 87.4279 109.416 87.4279 109.698V109.708C87.4279 110.238 87.1106 110.556 86.6594 110.685L87.5292 111.908H86.8614L86.0714 110.781H85.3613V111.908H84.7959V108.679ZM86.1899 110.279C86.5945 110.279 86.8528 110.066 86.8528 109.739V109.73C86.8528 109.384 86.6042 109.194 86.1856 109.194H85.3613V110.279H86.1899Z" fill="#0C0C16"/>
<path d="M90.0041 110.302V110.292C90.0041 109.383 90.7029 108.623 91.6923 108.623C92.6805 108.623 93.3713 109.374 93.3713 110.283V110.293C93.3713 111.201 92.6719 111.961 91.6821 111.961C90.6938 111.961 90.0041 111.209 90.0041 110.302ZM92.778 110.302V110.292C92.778 109.664 92.322 109.144 91.6826 109.144C91.0432 109.144 90.5968 109.654 90.5968 110.283V110.293C90.5968 110.919 91.0529 111.441 91.6923 111.441C92.3316 111.441 92.778 110.929 92.778 110.302Z" fill="#0C0C16"/>
<path d="M97.0237 108.655H97.5483L98.9659 111.906H98.3678L98.0409 111.126H96.5178L96.1876 111.906H95.6067L97.0237 108.655ZM97.834 110.624L97.2766 109.332L96.7246 110.624H97.834Z" fill="#0C0C16"/>
<path d="M101.541 108.679H102.743C103.755 108.679 104.454 109.374 104.454 110.283V110.293C104.454 111.201 103.754 111.906 102.743 111.906H101.541V108.679ZM102.743 111.389C103.419 111.389 103.861 110.933 103.861 110.302V110.292C103.861 109.66 103.419 109.195 102.743 109.195H102.107V111.389H102.743Z" fill="#0C0C16"/>
<path d="M112.003 108.679C112.408 108.679 112.726 108.798 112.932 109.001C113.102 109.177 113.199 109.416 113.199 109.698V109.708C113.199 110.238 112.881 110.556 112.431 110.685L113.3 111.908H112.632L111.842 110.781H111.131V111.908H110.567V108.679H112.003ZM111.962 110.279C112.366 110.279 112.624 110.066 112.624 109.739V109.73C112.624 109.384 112.375 109.194 111.957 109.194H111.133V110.279H111.962Z" fill="#0C0C16"/>
<path d="M115.867 110.537V108.679H116.432V110.513C116.432 111.113 116.742 111.437 117.247 111.437C117.75 111.437 118.057 111.132 118.057 110.537V108.679H118.623V110.51C118.623 111.473 118.08 111.958 117.239 111.958C116.401 111.957 115.867 111.473 115.867 110.537Z" fill="#0C0C16"/>
<path d="M121.424 108.679H121.949L123.674 110.91V108.679H124.23V111.907H123.757L121.981 109.61V111.907H121.424V108.679Z" fill="#0C0C16"/>
<path d="M127.082 108.679H127.606L129.333 110.91V108.679H129.89V111.907H129.415L127.639 109.61V111.907H127.082V108.679Z" fill="#0C0C16"/>
<path d="M132.74 108.679H135.129V109.186H133.307V110.025H134.921V110.533H133.307V111.399H135.152V111.907H132.74V108.679Z" fill="#0C0C16"/>
<path d="M137.848 108.679H139.284C139.688 108.679 140.006 108.798 140.213 109.001C140.382 109.177 140.478 109.416 140.478 109.698V109.708C140.478 110.238 140.161 110.556 139.71 110.685L140.58 111.908H139.912L139.121 110.781H138.411V111.908H137.848V108.679ZM139.241 110.279C139.647 110.279 139.903 110.066 139.903 109.739V109.73C139.903 109.384 139.655 109.194 139.237 109.194H138.411V110.279H139.241Z" fill="#0C0C16"/>
<path d="M142.981 111.436L143.321 111.03C143.63 111.298 143.938 111.449 144.338 111.449C144.688 111.449 144.909 111.288 144.909 111.044V111.034C144.909 110.804 144.78 110.679 144.183 110.542C143.496 110.375 143.109 110.172 143.109 109.577V109.568C143.109 109.014 143.568 108.632 144.208 108.632C144.678 108.632 145.051 108.775 145.378 109.038L145.076 109.468C144.785 109.25 144.495 109.135 144.201 109.135C143.87 109.135 143.676 109.305 143.676 109.517V109.527C143.676 109.776 143.824 109.886 144.44 110.033C145.122 110.2 145.474 110.445 145.474 110.979V110.989C145.474 111.592 145.001 111.953 144.324 111.953C143.832 111.953 143.367 111.782 142.981 111.436Z" fill="#0C0C16"/>
<path fill-rule="evenodd" clip-rule="evenodd" d="M102.105 80.2959C102.118 79.3174 102.027 78.414 101.629 77.8527C101.231 77.2904 100.115 77.176 99.5447 76.6265C100.103 76.0443 100.388 75.1323 100.54 74.2891C100.949 72.1048 98.8448 71.1944 97.6089 72.224C96.9947 72.7364 97.111 73.9916 97.1078 74.106C97.0869 74.7816 97.357 75.1694 97.0162 75.851C96.096 76.0766 95.157 75.8531 94.3955 75.9799C93.7165 76.0932 93.2309 76.5975 92.7764 76.9364C92.0192 77.0476 91.137 77.4096 90.7619 77.4961C89.7345 78.0971 89.2629 79.2357 88.3218 80.2503C88.0201 80.5768 87.683 80.731 87.3834 81.1591C86.6979 82.1387 86.4209 82.4497 87.3389 83.3423C87.631 83.5631 87.9199 83.2521 88.1444 82.9766C88.3684 82.7 88.4161 82.2622 88.2655 81.7311C88.9445 80.4737 90.4693 79.7739 91.4784 78.7137C92.6441 78.9693 93.5862 78.0504 94.3376 78.1997C94.3344 78.1986 94.0589 80.1391 94.045 80.2938C93.9732 81.137 93.605 81.8809 93.217 82.6178C92.8911 83.2354 92.4613 83.7919 92.1783 84.431C91.8814 85.0975 91.6896 85.8522 91.5449 86.566C91.4291 87.3206 91.5031 88.2401 91.4538 89.0522C91.4677 89.1956 91.5229 90.3777 91.5267 90.8917C91.5368 91.0147 91.5036 92.0008 91.5025 92.0685C91.4966 92.3816 91.1708 91.1806 91.0904 91.171C90.9184 91.1522 90.8739 91.0512 90.7271 90.933C90.5036 90.7542 90.4441 90.4706 90.115 90.4577C89.8036 90.4475 89.5132 90.723 89.5384 91.0297C89.5962 91.7671 89.2415 93.2248 89.2302 93.4235C89.2313 93.6701 89.0603 94.1201 89.3883 94.2034C90.0009 94.3602 90.6852 93.3457 90.5856 92.4869C90.9323 92.5234 91.1719 92.9257 91.5079 92.9735C91.6076 94.4429 90.8187 94.3473 90.779 97.1091C90.7721 97.5124 91.0915 98.3632 91.1676 98.7569C91.3364 99.6189 91.2587 99.9659 91.3064 100.835C91.346 101.544 91.4741 102.066 91.1338 102.732C90.9891 103.017 90.7094 103.27 90.7163 103.552C90.7276 104.012 91.5143 104.912 91.7769 104.912C92.0862 104.912 92.934 104.944 93.2255 104.901C93.5176 104.859 93.7175 104.878 93.7438 104.714C93.7749 104.298 93.4635 104.121 93.1355 104.12C92.621 103.064 92.6023 101.465 92.6773 99.9369C92.7143 99.1812 92.897 98.4459 93.0155 97.7047C93.1243 97.028 93.1505 96.3416 93.2915 95.6707C93.4222 95.0499 93.5986 94.4451 93.6248 93.8054C93.6548 93.7909 93.9796 91.1468 94.0369 91.1436C94.0911 91.1393 94.0889 93.763 94.1586 93.7608C94.3681 93.7522 94.4024 93.7463 94.5187 93.611C94.9834 93.0755 95.2685 92.3488 95.5729 91.7177C95.9443 90.9502 96.2514 90.1757 96.4256 89.3373C96.7889 87.6052 97.1582 85.8403 97.7622 84.1759C97.9112 83.7682 99.2832 81.8852 99.5458 81.4185C99.6454 81.2407 100.499 80.0951 100.405 79.942C100.759 80.5172 101.057 81.4958 101.388 82.0968C101.174 82.0227 100.485 81.8648 100.095 82.0834C99.7065 82.302 99.9306 82.8154 100.136 83.2188C100.273 83.4873 100.715 83.6834 101.074 83.4734C101.257 83.3654 101.354 83.2457 101.536 83.25C101.972 83.2623 102.517 83.6012 102.803 83.2698C103.239 82.7633 102.313 80.7224 102.105 80.2959Z" fill="#0C0C16"/>
</svg>
