<svg width="184" height="184" viewBox="0 0 184 184" fill="none" xmlns="http://www.w3.org/2000/svg">
<path d="M42.4452 94.4936H47.482V95.7064H43.8555V99.1961H47.2805V100.409H43.8555V105.532H42.4452V94.4936Z" fill="#0C0C16"/>
<path d="M53.9293 94.3699C56.4226 94.3699 58.0343 96.4736 58.0343 99.8891C58.0343 103.701 56.4729 105.631 53.8034 105.631C51.3102 105.631 49.6984 103.527 49.6984 100.112C49.6984 96.3004 51.285 94.3699 53.9293 94.3699ZM53.8034 104.517C55.2893 104.517 56.5485 103.305 56.5485 99.9138C56.5485 97.6864 55.8433 95.5331 53.9293 95.5331C52.4435 95.5331 51.1843 96.7459 51.1843 100.137C51.1843 102.364 51.9146 104.517 53.8034 104.517Z" fill="#0C0C16"/>
<path d="M67.8783 101.473C67.8783 102.562 67.8027 103.156 67.4249 103.948C66.9464 104.864 65.9643 105.656 64.3525 105.656C62.7155 105.656 61.7334 104.864 61.2801 103.948C60.9023 103.181 60.8267 102.562 60.8267 101.473V94.4936H62.237V101.671C62.237 103.404 63.0177 104.517 64.3525 104.517C65.6873 104.517 66.468 103.404 66.468 101.671V94.4936H67.8783V101.473Z" fill="#0C0C16"/>
<path d="M71.4361 94.4936H73.1989L77.4299 103.626H77.455V94.4936H78.815V105.557H77.0521L72.8212 96.4736H72.796V105.532H71.4361V94.4936Z" fill="#0C0C16"/>
<path d="M82.3882 94.4936H84.8311C86.3421 94.4936 87.1732 94.8401 87.828 95.2856C88.8353 95.9786 89.9182 97.3646 89.9182 99.8396C89.9182 103.032 88.382 105.532 84.1511 105.532H82.3882V94.4936ZM83.7985 104.344H84.6548C87.148 104.344 88.4324 102.686 88.4324 99.8396C88.4324 97.5378 87.425 95.6816 84.6548 95.6816H83.7985V104.344Z" fill="#0C0C16"/>
<path d="M96.6663 94.4936L100.343 105.557H98.8574L97.9507 102.661H93.6695L92.7628 105.532H91.3525L95.1301 94.4689H96.6663V94.4936ZM97.5982 101.448L95.8856 95.9291H95.8605L94.0976 101.448H97.5982Z" fill="#0C0C16"/>
<path d="M101.147 95.6816V94.4936H107.72V95.7064H105.151V105.557H103.741V95.6816H101.147Z" fill="#0C0C16"/>
<path d="M110.363 94.4936H111.773V105.557H110.363V94.4936Z" fill="#0C0C16"/>
<path d="M119.007 94.3699C121.5 94.3699 123.112 96.4736 123.112 99.8891C123.112 103.701 121.551 105.631 118.881 105.631C116.388 105.631 114.776 103.527 114.776 100.112C114.776 96.3004 116.337 94.3699 119.007 94.3699ZM118.856 104.517C120.342 104.517 121.601 103.305 121.601 99.9138C121.601 97.6864 120.896 95.5331 118.982 95.5331C117.496 95.5331 116.237 96.7459 116.237 100.137C116.262 102.364 116.967 104.517 118.856 104.517Z" fill="#0C0C16"/>
<path d="M125.851 94.4936H127.614L131.845 103.626H131.87V94.4936H133.23V105.557H131.467L127.236 96.4736H127.211V105.532H125.851V94.4936Z" fill="#0C0C16"/>
<path d="M141.441 96.0776C140.912 95.7559 140.206 95.5826 139.527 95.5826C138.469 95.5826 137.764 96.3004 137.764 97.2409C137.764 97.9586 138.066 98.4041 139.678 99.3199C141.415 100.31 141.995 101.275 141.995 102.537C141.995 104.295 140.886 105.681 138.721 105.681C137.814 105.681 136.958 105.483 136.379 105.21V103.775C137.033 104.146 137.864 104.493 138.519 104.493C139.804 104.493 140.509 103.651 140.509 102.76C140.509 101.894 140.282 101.424 138.771 100.508C136.731 99.2951 136.278 98.6269 136.278 97.1914C136.278 95.3599 137.688 94.4194 139.401 94.4194C140.131 94.4194 140.937 94.5679 141.441 94.7906V96.0776Z" fill="#0C0C16"/>
<path d="M45.9261 90.0417C43.6847 90.0417 41.3174 88.5319 41.3174 84.2502C41.3174 79.9685 43.6847 78.434 45.9261 78.434C48.1422 78.434 50.5347 79.9685 50.5347 84.2502C50.5347 88.5319 48.1422 90.0417 45.9261 90.0417ZM45.9261 80.2407C44.4906 80.2407 43.7099 81.6762 43.7099 84.2502C43.7099 86.8242 44.4906 88.2597 45.9261 88.2597C47.3615 88.2597 48.1422 86.8242 48.1422 84.2502C48.1422 81.6762 47.3615 80.2407 45.9261 80.2407Z" fill="#0C0C16"/>
<path d="M54.8916 89.8951H52.5747V78.5844H55.9241C58.2411 78.5844 59.5758 79.8466 59.5758 82.0741C59.5758 84.3016 58.2411 85.5639 55.9241 85.5639H54.8916V89.8951ZM54.8916 83.7819H55.5464C56.73 83.7819 57.2841 83.2621 57.2841 82.0741C57.2841 80.9109 56.7552 80.3911 55.5464 80.3911H54.8916V83.7819Z" fill="#0C0C16"/>
<path d="M67.9859 89.8951H61.6648V78.5844H67.8348V80.4406H63.9817V83.1384H67.6334V84.9946H63.9817V88.0141H67.9859V89.8951Z" fill="#0C0C16"/>
<path d="M78.7888 89.8951H76.1193L72.5684 81.6781V89.8951H70.4529V78.5844H73.1224L76.6734 86.8509V78.5844H78.7888V89.8951Z" fill="#0C0C16"/>
<path d="M88.6135 90.0436C87.4551 90.0436 86.5484 89.8704 85.9944 89.5239L85.9188 89.4744L86.0448 87.3954L86.221 87.5191C86.4729 87.6676 87.3543 88.1874 88.538 88.1874C89.2935 88.1874 90.1246 87.7914 90.1246 86.7024C90.1246 86.0094 89.7468 85.6876 88.7143 85.1431L87.6565 84.5739C86.3721 83.8809 85.7425 82.8909 85.7425 81.5791C85.7677 80.0199 86.901 78.4359 89.4446 78.4359C90.5275 78.4359 91.3334 78.6834 91.7111 78.8071L91.9126 78.8814L91.8119 80.8366L91.5349 80.7376C91.0564 80.5396 90.4519 80.3169 89.5957 80.3169C88.6891 80.3169 88.1602 80.7624 88.1602 81.4801C88.1602 82.2474 88.6891 82.5196 89.2935 82.8661L90.5023 83.5344C91.8119 84.2521 92.517 84.9699 92.517 86.6281C92.4919 88.7319 91.006 90.0436 88.6135 90.0436Z" fill="#0C0C16"/>
<path d="M98.4851 90.0436C96.2689 90.0436 93.8765 88.5091 93.8765 84.2274C93.8765 79.9456 96.2438 78.4359 98.4851 78.4359C100.701 78.4359 103.094 79.9704 103.094 84.2521C103.094 88.5339 100.701 90.0436 98.4851 90.0436ZM98.4851 80.2426C97.0496 80.2426 96.2689 81.6781 96.2689 84.2521C96.2689 86.8261 97.0496 88.2616 98.4851 88.2616C99.9206 88.2616 100.701 86.8261 100.701 84.2521C100.701 81.6781 99.9206 80.2426 98.4851 80.2426Z" fill="#0C0C16"/>
<path d="M109.743 90.0436C106.469 90.0436 104.454 87.8161 104.454 84.2274C104.454 80.6881 106.519 78.4111 109.693 78.4111C110.826 78.4111 111.783 78.7081 112.236 78.8814L112.312 78.9061L112.186 81.0099L111.884 80.8614C111.481 80.6634 110.851 80.3416 109.944 80.3416C109.038 80.3416 106.897 80.7129 106.897 84.2274C106.897 87.7419 109.038 88.1131 109.944 88.1131C110.801 88.1131 111.481 87.9399 112.01 87.5686L112.186 87.4449L112.312 89.5981L112.236 89.6476C111.783 89.8951 110.75 90.0436 109.743 90.0436Z" fill="#0C0C16"/>
<path d="M125.357 89.8951H119.036V78.5844H125.181V80.4406H121.328V83.1384H124.98V84.9946H121.328V88.0141H125.332V89.8951H125.357Z" fill="#0C0C16"/>
<path d="M130.949 89.8951H128.632V80.4654H126.113V78.5844H133.442V80.4406H130.949V89.8951Z" fill="#0C0C16"/>
<path d="M139.533 89.8951H137.216V85.3659L133.841 78.5844H136.335L138.45 82.8414L140.44 78.5844H142.958L139.533 85.4154V89.8951Z" fill="#0C0C16"/>
<path d="M116.792 89.8951H114.475V78.5844H116.792V89.8951Z" fill="#0C0C16"/>
</svg>
