<svg width="184" height="184" viewBox="0 0 184 184" fill="none" xmlns="http://www.w3.org/2000/svg">
<path d="M48.2523 82.524V85.1717H52.3223C53.7539 85.1717 54.9047 86.2794 54.9047 87.6573C54.9047 89.0351 53.7539 90.1699 52.3223 90.1699H48.2523V92.8176H52.3223C55.2696 92.8176 57.6836 90.4941 57.6836 87.6573C57.6836 84.8204 55.2696 82.497 52.3223 82.497C52.3223 82.524 48.2523 82.524 48.2523 82.524Z" fill="#0C0C16"/>
<path d="M42.751 106.542H45.5299V82.5239H42.751V106.542Z" fill="#0C0C16"/>
<path d="M37.2775 106.542V77.3096H52.4069C58.3576 77.3096 63.2137 81.9836 63.2137 87.7112C63.2137 93.4389 58.3576 98.1129 52.4069 98.1129H48.2526V95.4652H52.4069C56.8419 95.4652 60.4629 91.98 60.4629 87.7112C60.4629 83.4425 56.8419 79.9573 52.4069 79.9573H40.0563V106.515H37.2775" fill="#0C0C16"/>
<path d="M72.3361 102.436C72.3361 101.085 72.3361 100.842 72.3081 100.572C72.28 100.274 72.2239 100.139 71.9151 100.085C71.8309 100.058 71.6905 100.058 71.6063 100.058C71.5783 100.058 71.5221 100.031 71.5221 100.004C71.5221 99.9502 71.5783 99.9231 71.6625 99.9231C72.0554 99.9231 72.6168 99.9502 72.673 99.9502C72.8695 99.9502 73.4028 99.9231 73.7958 99.9231C74.9185 99.9231 75.3115 100.274 75.4799 100.409C75.6764 100.599 75.929 100.977 75.929 101.436C75.929 102.652 75.0027 103.489 73.7115 103.489C73.6554 103.489 73.5712 103.489 73.5151 103.489C73.4589 103.489 73.4028 103.462 73.4028 103.435C73.4028 103.354 73.4589 103.354 73.6554 103.354C74.5256 103.354 75.1992 102.733 75.1992 101.949C75.1992 101.652 75.1712 101.085 74.694 100.626C74.2168 100.166 73.6554 100.193 73.4589 100.193C73.3186 100.193 73.1502 100.22 73.0659 100.247C73.0098 100.274 72.9817 100.328 72.9817 100.409V103.976C72.9817 104.813 72.9817 105.489 73.0379 105.867C73.0659 106.11 73.1221 106.299 73.3747 106.353C73.487 106.38 73.7115 106.38 73.7677 106.38C73.8238 106.38 73.8519 106.407 73.8519 106.434C73.8519 106.488 73.7958 106.515 73.7115 106.515C73.2063 106.515 72.6449 106.488 72.6168 106.488C72.5888 106.488 72.0274 106.515 71.7467 106.515C71.6344 106.515 71.6063 106.488 71.6063 106.434C71.6063 106.407 71.6344 106.38 71.6905 106.38C71.7748 106.38 71.887 106.353 71.9712 106.353C72.1397 106.326 72.1958 106.137 72.2239 105.867C72.28 105.516 72.28 104.813 72.28 103.976V102.436" fill="#0C0C16"/>
<path d="M79.5219 102.436C79.5219 101.085 79.5218 100.842 79.4938 100.572C79.4657 100.274 79.4096 100.139 79.1008 100.085C79.0166 100.058 78.8763 100.058 78.792 100.058C78.764 100.058 78.7078 100.031 78.7078 100.004C78.7078 99.9502 78.764 99.9231 78.8482 99.9231C79.2412 99.9231 79.8306 99.9502 79.8587 99.9502C79.971 99.9502 80.6446 99.9231 80.9253 99.9231C81.4867 99.9231 82.1042 99.9772 82.5814 100.301C82.806 100.463 83.199 100.869 83.199 101.49C83.199 102.139 82.9183 102.76 82.1042 103.489C82.834 104.408 83.4516 105.164 83.9849 105.705C84.4621 106.191 84.855 106.299 85.0796 106.326C85.248 106.353 85.3884 106.353 85.4445 106.353C85.5006 106.353 85.5287 106.38 85.5287 106.407C85.5287 106.461 85.4726 106.488 85.3042 106.488H84.6586C84.1533 106.488 83.9288 106.434 83.7042 106.326C83.3112 106.137 83.0025 105.705 82.4972 105.056C82.1323 104.57 81.7113 104.003 81.5148 103.787C81.4867 103.76 81.4586 103.733 81.4025 103.733L80.3078 103.706C80.2517 103.706 80.2517 103.733 80.2517 103.787V104.003C80.2517 104.84 80.2517 105.516 80.3078 105.894C80.3359 106.137 80.392 106.326 80.6446 106.38C80.7569 106.407 80.9815 106.407 81.0376 106.407C81.0937 106.407 81.1218 106.434 81.1218 106.461C81.1218 106.515 81.0657 106.542 80.9815 106.542C80.4762 106.542 79.9148 106.515 79.8868 106.515C79.8868 106.515 79.2973 106.542 79.0447 106.542C78.9324 106.542 78.9043 106.515 78.9043 106.461C78.9043 106.434 78.9324 106.407 78.9885 106.407C79.0727 106.407 79.185 106.38 79.2692 106.38C79.4376 106.353 79.4938 106.164 79.5219 105.894C79.578 105.543 79.578 104.84 79.578 104.003V102.436H79.5219ZM80.2236 103.192C80.2236 103.246 80.2517 103.273 80.2797 103.3C80.4201 103.381 80.813 103.435 81.2341 103.435C81.4586 103.435 81.7113 103.408 81.9078 103.273C82.2165 103.057 82.4411 102.598 82.4411 101.949C82.4411 100.869 81.8516 100.22 80.8973 100.22C80.6166 100.22 80.392 100.247 80.3078 100.274C80.2517 100.301 80.2236 100.328 80.2236 100.382V103.192Z" fill="#0C0C16"/>
<path d="M87.6614 102.436C87.6614 101.085 87.6614 100.842 87.6333 100.572C87.6053 100.274 87.5491 100.139 87.2404 100.085C87.1561 100.058 87.0158 100.058 86.9316 100.058C86.9035 100.058 86.8474 100.031 86.8474 100.004C86.8474 99.9502 86.9035 99.9232 86.9877 99.9232C87.1842 99.9232 87.4368 99.9232 87.6333 99.9232L87.9982 99.9502C88.0544 99.9502 89.8508 99.9502 90.0473 99.9502C90.2157 99.9502 90.3561 99.9232 90.4403 99.8962C90.4964 99.8962 90.5245 99.8422 90.5526 99.8422C90.5806 99.8422 90.5806 99.8692 90.5806 99.9232C90.5806 99.9773 90.5245 100.085 90.4964 100.328C90.4964 100.41 90.4683 100.788 90.4403 100.896C90.4403 100.95 90.4122 100.977 90.3841 100.977C90.328 100.977 90.2999 100.923 90.2999 100.869C90.2999 100.815 90.2999 100.653 90.2438 100.545C90.1877 100.41 90.1034 100.301 89.5982 100.247C89.4578 100.22 88.4754 100.22 88.3631 100.22C88.3351 100.22 88.307 100.247 88.307 100.301V102.679C88.307 102.733 88.307 102.76 88.3631 102.76C88.4754 102.76 89.5982 102.76 89.7947 102.733C90.0192 102.706 90.1315 102.706 90.2157 102.625C90.2719 102.544 90.2999 102.517 90.3561 102.517C90.3841 102.517 90.4122 102.544 90.4122 102.598C90.4122 102.652 90.3561 102.787 90.328 103.084C90.2999 103.246 90.2999 103.571 90.2999 103.652C90.2999 103.733 90.2999 103.814 90.2438 103.814C90.1877 103.814 90.1876 103.787 90.1876 103.733C90.1876 103.652 90.1876 103.571 90.1596 103.435C90.1315 103.3 90.0473 103.165 89.6824 103.138C89.4298 103.111 88.5596 103.084 88.3912 103.084C88.3351 103.084 88.3351 103.111 88.3351 103.138V103.895C88.3351 104.192 88.3351 105.192 88.3351 105.381C88.3631 105.975 88.5035 106.083 89.3736 106.083C89.5982 106.083 89.9912 106.083 90.2438 106.002C90.4683 105.894 90.5806 105.732 90.6368 105.381C90.6648 105.273 90.6648 105.246 90.721 105.246C90.7771 105.246 90.7771 105.327 90.7771 105.381C90.7771 105.462 90.6929 106.029 90.6648 106.218C90.6087 106.434 90.5245 106.434 90.1876 106.434C89.514 106.434 89.0087 106.407 88.6719 106.407C88.307 106.38 88.1105 106.38 87.9702 106.38C87.9421 106.38 87.8017 106.38 87.6053 106.38C87.4368 106.38 87.2123 106.407 87.0719 106.407C86.9877 106.407 86.9316 106.38 86.9316 106.326C86.9316 106.299 86.9597 106.272 87.0158 106.272C87.1 106.272 87.2123 106.245 87.2965 106.245C87.4649 106.218 87.5211 106.029 87.5491 105.759C87.6053 105.408 87.6053 104.705 87.6053 103.868V102.436" fill="#0C0C16"/>
<path d="M94.1174 106.353C94.0051 106.299 93.977 106.272 93.977 106.029C93.977 105.597 94.0051 105.246 94.0332 105.11C94.0332 105.029 94.0612 104.975 94.1174 104.975C94.1735 104.975 94.1735 105.002 94.1735 105.083C94.1735 105.165 94.1735 105.273 94.2016 105.408C94.3419 106.056 94.9314 106.299 95.5208 106.299C96.391 106.299 96.812 105.705 96.812 105.138C96.812 104.543 96.5594 104.192 95.7735 103.57L95.3805 103.246C94.4261 102.49 94.2016 101.949 94.2016 101.355C94.2016 100.436 94.9314 99.7881 96.0542 99.7881C96.4191 99.7881 96.6717 99.8151 96.8963 99.8691C97.0647 99.8961 97.1489 99.9232 97.205 99.9232C97.2892 99.9232 97.2892 99.9502 97.2892 99.9772C97.2892 100.031 97.2612 100.301 97.2612 100.896C97.2612 101.031 97.2331 101.085 97.205 101.085C97.1489 101.085 97.1489 101.031 97.1208 100.977C97.1208 100.869 97.0647 100.653 97.0085 100.545C96.9524 100.436 96.6998 100.085 95.8858 100.085C95.2682 100.085 94.791 100.464 94.791 101.085C94.791 101.571 95.0156 101.895 95.8858 102.544L96.1384 102.733C97.205 103.543 97.4576 104.084 97.4576 104.759C97.4576 105.11 97.3173 105.759 96.6998 106.191C96.3068 106.461 95.8296 106.542 95.3524 106.542C94.9033 106.596 94.4823 106.542 94.1174 106.353Z" fill="#0C0C16"/>
<path d="M100.91 106.353C100.798 106.299 100.77 106.272 100.77 106.029C100.77 105.597 100.798 105.246 100.826 105.11C100.826 105.029 100.854 104.975 100.91 104.975C100.966 104.975 100.966 105.002 100.966 105.083C100.966 105.165 100.966 105.273 100.994 105.408C101.135 106.056 101.724 106.299 102.314 106.299C103.184 106.299 103.605 105.705 103.605 105.138C103.605 104.543 103.352 104.192 102.566 103.57L102.173 103.246C101.219 102.49 100.994 101.949 100.994 101.355C100.994 100.436 101.724 99.7881 102.847 99.7881C103.212 99.7881 103.464 99.8151 103.689 99.8691C103.857 99.8961 103.942 99.9232 103.998 99.9232C104.082 99.9232 104.082 99.9502 104.082 99.9772C104.082 100.031 104.054 100.301 104.054 100.896C104.054 101.031 104.026 101.085 103.998 101.085C103.942 101.085 103.942 101.031 103.914 100.977C103.914 100.869 103.857 100.653 103.801 100.545C103.745 100.436 103.492 100.085 102.678 100.085C102.061 100.085 101.584 100.464 101.584 101.085C101.584 101.571 101.808 101.895 102.678 102.544L102.931 102.733C103.998 103.543 104.25 104.084 104.25 104.759C104.25 105.11 104.11 105.759 103.492 106.191C103.099 106.461 102.622 106.542 102.145 106.542C101.696 106.596 101.275 106.542 100.91 106.353Z" fill="#0C0C16"/>
<path d="M72.3361 82.5239C72.3361 81.1731 72.3361 80.9299 72.3081 80.6597C72.28 80.3625 72.2239 80.2274 71.9151 80.1734C71.8309 80.1464 71.6905 80.1464 71.6063 80.1464C71.5783 80.1464 71.5221 80.1194 71.5221 80.0924C71.5221 80.0383 71.5783 80.0113 71.6625 80.0113C72.0554 80.0113 72.6168 80.0383 72.673 80.0383C72.8695 80.0383 73.4028 80.0113 73.7958 80.0113C74.9185 80.0113 75.3115 80.3895 75.4799 80.4976C75.6764 80.6867 75.929 81.065 75.929 81.5243C75.929 82.7671 75.0027 83.5776 73.7115 83.5776C73.6554 83.5776 73.5712 83.5776 73.5151 83.5776C73.4589 83.5776 73.4028 83.5506 73.4028 83.5236C73.4028 83.4425 73.4589 83.4425 73.6554 83.4425C74.5256 83.4425 75.1992 82.8211 75.1992 82.0376C75.1992 81.7404 75.1712 81.1731 74.694 80.7138C74.2168 80.2545 73.6554 80.2815 73.4589 80.2815C73.3186 80.2815 73.1502 80.3085 73.0659 80.3355C73.0098 80.3625 72.9817 80.4166 72.9817 80.4976V84.0639C72.9817 84.9014 72.9817 85.5769 73.0379 85.9551C73.0659 86.1983 73.1221 86.3874 73.3747 86.4414C73.487 86.4684 73.7115 86.4684 73.7677 86.4684C73.8238 86.4684 73.8519 86.4955 73.8519 86.5225C73.8519 86.5765 73.7958 86.6035 73.7115 86.6035C73.2063 86.6035 72.6449 86.5765 72.6168 86.5765C72.5888 86.5765 72.0274 86.6035 71.7467 86.6035C71.6344 86.6035 71.6063 86.5765 71.6063 86.5225C71.6063 86.4955 71.6344 86.4684 71.6905 86.4684C71.7748 86.4684 71.887 86.4414 71.9712 86.4414C72.1397 86.4144 72.1958 86.2253 72.2239 85.9551C72.28 85.6039 72.28 84.9014 72.28 84.0639V82.5239" fill="#0C0C16"/>
<path d="M79.7184 82.5239C79.7184 81.1731 79.7184 80.9299 79.6903 80.6597C79.6622 80.3625 79.6061 80.2274 79.2973 80.1734C79.2131 80.1464 79.0728 80.1464 78.9886 80.1464C78.9605 80.1464 78.9043 80.1194 78.9043 80.0924C78.9043 80.0383 78.9605 80.0113 79.0447 80.0113C79.4377 80.0113 80.0271 80.0383 80.0552 80.0383C80.1675 80.0383 80.8411 80.0113 81.1218 80.0113C81.6832 80.0113 82.3007 80.0653 82.7779 80.3895C83.0025 80.5517 83.3955 80.9569 83.3955 81.5783C83.3955 82.2267 83.1148 82.8481 82.3007 83.5776C83.0306 84.4962 83.6481 85.2527 84.1814 85.793C84.6586 86.2793 85.0516 86.3874 85.2761 86.4144C85.4445 86.4414 85.5849 86.4414 85.6129 86.4414C85.6691 86.4414 85.6972 86.4684 85.6972 86.4955C85.6972 86.5495 85.641 86.5765 85.4726 86.5765H84.827C84.3217 86.5765 84.0972 86.5225 83.8726 86.4144C83.4797 86.2253 83.1709 85.793 82.6656 85.1446C82.3007 84.6583 81.8516 84.0909 81.6832 83.8748C81.6551 83.8478 81.6271 83.8208 81.5709 83.8208L80.4762 83.7937C80.4201 83.7937 80.4201 83.8208 80.4201 83.8748V84.0909C80.4201 84.9285 80.4201 85.6039 80.4762 85.9821C80.5043 86.2253 80.5604 86.4144 80.8131 86.4684C80.9253 86.4955 81.1499 86.4955 81.206 86.4955C81.2622 86.4955 81.2902 86.5225 81.2902 86.5495C81.2902 86.6035 81.2341 86.6306 81.1499 86.6306C80.6447 86.6306 80.0833 86.6035 80.0552 86.6035C80.0552 86.6035 79.4938 86.6306 79.2131 86.6306C79.1008 86.6306 79.0728 86.6035 79.0728 86.5495C79.0728 86.5225 79.1008 86.4955 79.157 86.4955C79.2412 86.4955 79.3535 86.4684 79.4377 86.4684C79.6061 86.4414 79.6622 86.2523 79.6903 85.9821C79.7464 85.6309 79.7464 84.9285 79.7464 84.0909V82.5239H79.7184ZM80.4482 83.2804C80.4482 83.3344 80.4762 83.3615 80.5043 83.3885C80.6446 83.4695 81.0657 83.5236 81.4587 83.5236C81.6832 83.5236 81.9358 83.4965 82.1323 83.3615C82.4411 83.1453 82.6937 82.686 82.6937 82.0376C82.6937 80.9569 82.1043 80.3085 81.1499 80.3085C80.8692 80.3085 80.6446 80.3355 80.5604 80.3625C80.5043 80.3895 80.4762 80.4166 80.4762 80.4706V83.2804H80.4482Z" fill="#0C0C16"/>
<path d="M88.9534 84.0369C88.9534 84.8744 88.9534 85.5499 89.0096 85.9281C89.0376 86.1713 89.0938 86.3604 89.3464 86.4144C89.4867 86.4414 89.6832 86.4414 89.7394 86.4414C89.7955 86.4414 89.8236 86.4684 89.8236 86.4955C89.8236 86.5495 89.7674 86.5765 89.6832 86.5765C89.178 86.5765 88.6166 86.5495 88.5885 86.5495C88.5324 86.5495 87.971 86.5765 87.7184 86.5765C87.6061 86.5765 87.578 86.5495 87.578 86.4955C87.578 86.4684 87.6061 86.4414 87.6622 86.4414C87.7464 86.4414 87.8587 86.4144 87.9429 86.4144C88.1113 86.3874 88.1675 86.1983 88.1955 85.9281C88.2517 85.5769 88.2517 84.8744 88.2517 84.0369V82.5239C88.2517 81.1731 88.2517 80.9299 88.2236 80.6597C88.1955 80.3625 88.1113 80.2274 87.9149 80.1734C87.8026 80.1464 87.6903 80.1464 87.6342 80.1464C87.6061 80.1464 87.55 80.1194 87.55 80.0924C87.55 80.0383 87.6061 80.0113 87.6903 80.0113C87.9991 80.0113 88.5605 80.0383 88.5885 80.0383C88.6447 80.0383 89.206 80.0113 89.4587 80.0113C89.571 80.0113 89.599 80.0383 89.599 80.0924C89.599 80.1194 89.571 80.1464 89.5148 80.1464C89.4587 80.1464 89.4025 80.1464 89.2903 80.1734C89.0376 80.2274 88.9815 80.3625 88.9534 80.6597C88.9254 80.9299 88.9254 81.1731 88.9254 82.5239V84.0369" fill="#0C0C16"/>
<path d="M94.0054 85.3877C94.0335 86.0902 94.1177 86.3334 94.3423 86.3874C94.5107 86.4414 94.7072 86.4414 94.7914 86.4414C94.8475 86.4414 94.8756 86.4684 94.8756 86.4955C94.8756 86.5495 94.8194 86.5765 94.7072 86.5765C94.2019 86.5765 93.837 86.5495 93.7528 86.5495C93.6686 86.5495 93.3037 86.5765 92.8827 86.5765C92.7984 86.5765 92.7423 86.5765 92.7423 86.4955C92.7423 86.4684 92.7704 86.4414 92.8265 86.4414C92.9107 86.4414 93.0511 86.4414 93.1914 86.3874C93.416 86.3334 93.4721 86.0632 93.4721 85.2797V80.3085C93.4721 79.9843 93.5002 79.8762 93.5563 79.8762C93.6405 79.8762 93.7809 80.0653 93.8651 80.1464C94.0054 80.2815 95.3528 81.6864 96.7282 83.1183C97.6264 84.0369 98.6088 85.0906 98.8895 85.3877L98.7772 80.9839C98.7772 80.4166 98.693 80.2274 98.4404 80.1734C98.272 80.1464 98.0755 80.1194 97.9913 80.1194C97.9352 80.1194 97.9071 80.0924 97.9071 80.0653C97.9071 80.0113 97.9913 80.0113 98.0755 80.0113C98.4685 80.0113 98.9176 80.0383 99.0018 80.0383C99.1141 80.0383 99.3948 80.0113 99.7597 80.0113C99.8439 80.0113 99.9281 80.0113 99.9281 80.0653C99.9281 80.0924 99.9 80.1194 99.8158 80.1194C99.7597 80.1194 99.7035 80.1194 99.5913 80.1464C99.2825 80.2004 99.2544 80.3895 99.2544 80.9299L99.3106 86.0091C99.3106 86.5765 99.2825 86.6305 99.2264 86.6305C99.1421 86.6305 99.0579 86.5225 98.5808 86.0632C98.4685 85.9821 97.1773 84.7123 96.2229 83.7127C95.1844 82.632 94.1738 81.5513 93.8651 81.2271L94.0054 85.3877Z" fill="#0C0C16"/>
<path d="M103.55 85.739C102.68 84.9825 102.455 84.0099 102.455 83.1724C102.455 82.605 102.652 81.5783 103.466 80.8218C103.999 80.3085 104.813 79.9033 106.216 79.9033C106.581 79.9033 107.087 79.9303 107.508 80.0113C107.844 80.0654 108.125 80.1194 108.434 80.1464C108.546 80.1464 108.546 80.2004 108.546 80.2275C108.546 80.3085 108.518 80.3896 108.49 80.7138C108.462 81.011 108.462 81.4703 108.462 81.6053C108.462 81.7404 108.434 81.7945 108.378 81.7945C108.322 81.7945 108.294 81.7404 108.294 81.6053C108.294 81.2811 108.153 80.9029 107.929 80.7138C107.62 80.4436 106.918 80.2275 106.132 80.2275C104.925 80.2275 104.392 80.5787 104.055 80.8489C103.409 81.4432 103.241 82.2267 103.241 83.1183C103.241 84.7664 104.56 86.2793 106.497 86.2793C107.171 86.2793 107.704 86.1983 108.069 85.8471C108.265 85.6579 108.378 85.2797 108.406 85.1176C108.434 85.0095 108.434 84.9825 108.49 84.9825C108.546 84.9825 108.546 85.0365 108.546 85.1176C108.546 85.1716 108.434 85.9281 108.35 86.2253C108.294 86.3874 108.265 86.4144 108.125 86.4685C107.76 86.6036 107.087 86.6576 106.497 86.6576C105.178 86.6846 104.252 86.3604 103.55 85.739Z" fill="#0C0C16"/>
<path d="M112.111 82.524C112.111 81.1731 112.111 80.9299 112.083 80.6598C112.055 80.3626 111.998 80.2275 111.69 80.1734C111.605 80.1464 111.465 80.1464 111.381 80.1464C111.353 80.1464 111.297 80.1194 111.297 80.0924C111.297 80.0384 111.353 80.0113 111.437 80.0113C111.633 80.0113 111.886 80.0113 112.083 80.0113L112.447 80.0384C112.504 80.0384 114.3 80.0384 114.497 80.0384C114.665 80.0384 114.805 80.0113 114.89 79.9843C114.946 79.9843 114.974 79.9303 115.002 79.9303C115.03 79.9303 115.03 79.9573 115.03 80.0113C115.03 80.0654 114.974 80.1734 114.946 80.4166C114.946 80.4977 114.918 80.8759 114.89 80.984C114.89 81.038 114.861 81.065 114.833 81.065C114.777 81.065 114.749 81.011 114.749 80.957C114.749 80.9029 114.749 80.7408 114.693 80.6327C114.637 80.4977 114.553 80.3896 114.047 80.3356C113.907 80.3085 112.925 80.3085 112.812 80.3085C112.784 80.3085 112.756 80.3356 112.756 80.3896V82.8211C112.756 82.8752 112.756 82.9022 112.812 82.9022C112.925 82.9022 114.047 82.9022 114.244 82.8752C114.469 82.8482 114.581 82.8482 114.665 82.7671C114.721 82.6861 114.777 82.659 114.805 82.659C114.833 82.659 114.861 82.6861 114.861 82.7401C114.861 82.7941 114.805 82.9292 114.777 83.2264C114.749 83.3885 114.749 83.7127 114.749 83.7938C114.749 83.8748 114.749 83.9559 114.693 83.9559C114.637 83.9559 114.637 83.9289 114.637 83.8748C114.637 83.7938 114.637 83.7127 114.609 83.5776C114.581 83.4696 114.497 83.3075 114.132 83.2804C113.879 83.2534 113.009 83.2264 112.84 83.2264C112.784 83.2264 112.784 83.2534 112.784 83.2804V84.0369C112.784 84.3341 112.784 85.3338 112.784 85.5229C112.812 86.1173 112.953 86.2253 113.823 86.2253C114.047 86.2253 114.44 86.2253 114.693 86.1173C114.918 86.0092 115.03 85.8471 115.086 85.4959C115.114 85.3878 115.114 85.3608 115.17 85.3608C115.226 85.3608 115.226 85.4418 115.226 85.4959C115.226 85.5769 115.142 86.1443 115.114 86.3334C115.058 86.5495 114.974 86.5495 114.637 86.5495C113.963 86.5495 113.458 86.5225 113.121 86.5225C112.784 86.4955 112.56 86.4955 112.419 86.4955C112.391 86.4955 112.251 86.4955 112.055 86.4955C111.886 86.4955 111.662 86.5225 111.521 86.5225C111.409 86.5225 111.381 86.4955 111.381 86.4415C111.381 86.4145 111.409 86.3874 111.465 86.3874C111.549 86.3874 111.662 86.3604 111.746 86.3604C111.914 86.3334 111.97 86.1443 111.998 85.8741C112.055 85.5229 112.055 84.8204 112.055 83.9829V82.524" fill="#0C0C16"/>
<path d="M120.924 84.0369C120.924 84.8744 120.924 85.5499 120.98 85.9281C121.009 86.1713 121.065 86.3604 121.317 86.4144C121.458 86.4414 121.654 86.4414 121.71 86.4414C121.766 86.4414 121.794 86.4685 121.794 86.4955C121.794 86.5495 121.738 86.5765 121.654 86.5765C121.149 86.5765 120.588 86.5495 120.559 86.5495C120.503 86.5495 119.942 86.5765 119.689 86.5765C119.577 86.5765 119.549 86.5495 119.549 86.4955C119.549 86.4685 119.577 86.4414 119.633 86.4414C119.717 86.4414 119.83 86.4144 119.914 86.4144C120.082 86.3874 120.138 86.1983 120.166 85.9281C120.223 85.5769 120.223 84.8744 120.223 84.0369V80.3896L118.903 80.4166C118.342 80.4166 118.117 80.4976 117.977 80.6868C117.865 80.8218 117.865 80.9029 117.837 80.9569C117.809 81.038 117.781 81.038 117.752 81.038C117.724 81.038 117.696 81.011 117.696 80.9569C117.696 80.8759 117.865 80.1194 117.893 80.0654C117.921 80.0113 117.949 79.9033 117.977 79.9033C118.033 79.9033 118.117 79.9843 118.37 80.0113C118.623 80.0383 118.959 80.0654 119.072 80.0654H122.44C122.721 80.0654 122.945 80.0383 123.086 80.0113C123.226 79.9843 123.31 79.9573 123.338 79.9573C123.394 79.9573 123.394 80.0113 123.394 80.0654C123.394 80.3355 123.366 80.9299 123.366 81.011C123.366 81.092 123.338 81.119 123.31 81.119C123.254 81.119 123.254 81.092 123.226 80.9839V80.8759C123.198 80.6057 122.973 80.4166 122.131 80.3896L121.009 80.3625V84.0369" fill="#0C0C16"/>
<path d="M128.756 79.9033C130.777 79.9033 132.293 81.1461 132.293 83.1453C132.293 85.0906 130.861 86.6846 128.7 86.6846C126.23 86.6846 125.219 84.8474 125.219 83.2804C125.219 81.8755 126.258 79.9033 128.756 79.9033ZM128.953 86.3604C129.767 86.3604 131.423 85.9011 131.423 83.3885C131.423 81.3082 130.103 80.2004 128.7 80.2004C127.212 80.2004 126.061 81.1461 126.061 83.0373C126.061 85.0636 127.324 86.3604 128.953 86.3604Z" fill="#0C0C16"/>
<path d="M135.998 85.3877C136.026 86.0902 136.11 86.3334 136.362 86.3874C136.531 86.4414 136.727 86.4414 136.812 86.4414C136.868 86.4414 136.896 86.4684 136.896 86.4955C136.896 86.5495 136.84 86.5765 136.727 86.5765C136.222 86.5765 135.857 86.5495 135.773 86.5495C135.689 86.5495 135.324 86.5765 134.903 86.5765C134.819 86.5765 134.762 86.5765 134.762 86.4955C134.762 86.4684 134.791 86.4414 134.847 86.4414C134.931 86.4414 135.071 86.4414 135.212 86.3874C135.436 86.3334 135.492 86.0632 135.492 85.2797V80.3085C135.492 79.9843 135.52 79.8762 135.605 79.8762C135.689 79.8762 135.829 80.0653 135.913 80.1464C136.054 80.2815 137.401 81.6864 138.776 83.1183C139.675 84.0369 140.657 85.0906 140.938 85.3877L140.825 80.9839C140.825 80.4166 140.741 80.2274 140.489 80.1734C140.32 80.1464 140.124 80.1194 140.04 80.1194C139.983 80.1194 139.955 80.0924 139.955 80.0653C139.955 80.0113 140.04 80.0113 140.124 80.0113C140.517 80.0113 140.966 80.0383 141.05 80.0383C141.162 80.0383 141.443 80.0113 141.808 80.0113C141.92 80.0113 141.976 80.0113 141.976 80.0653C141.976 80.0924 141.948 80.1194 141.892 80.1194C141.836 80.1194 141.78 80.1194 141.668 80.1464C141.359 80.2004 141.331 80.3895 141.331 80.9299L141.303 86.0091C141.303 86.5765 141.275 86.6305 141.218 86.6305C141.134 86.6305 141.05 86.5225 140.573 86.0632C140.461 85.9821 139.169 84.7123 138.215 83.7127C137.176 82.632 136.166 81.5513 135.857 81.2271L135.998 85.3877Z" fill="#0C0C16"/>
<path d="M71.8027 92.4933C71.8027 91.1424 71.8027 90.8993 71.7746 90.6291C71.7466 90.3319 71.6904 90.1968 71.3817 90.1428C71.2974 90.1158 71.1571 90.1158 71.0729 90.1158C71.0448 90.1158 70.9887 90.0887 70.9887 90.0617C70.9887 90.0077 71.0448 89.9807 71.129 89.9807C71.522 89.9807 72.0834 90.0077 72.1676 90.0077C72.2518 90.0077 72.7851 89.9807 73.0658 89.9807C73.15 89.9807 73.2062 90.0077 73.2062 90.0617C73.2062 90.0887 73.1781 90.1158 73.122 90.1158C73.0658 90.1158 73.0097 90.1158 72.8974 90.1428C72.6448 90.1698 72.5886 90.3319 72.5606 90.6291C72.5325 90.8993 72.5325 91.1424 72.5325 92.4933V93.7091C72.5325 94.9519 72.8132 95.4922 73.2062 95.8434C73.6553 96.2487 74.0483 96.3297 74.5535 96.3297C75.1149 96.3297 75.6482 96.0866 75.957 95.7083C76.378 95.222 76.4903 94.4926 76.4903 93.601V92.5203C76.4903 91.1694 76.4903 90.9263 76.4622 90.6561C76.4342 90.3589 76.378 90.2238 76.0693 90.1698C75.985 90.1428 75.8447 90.1428 75.7605 90.1428C75.7324 90.1428 75.6763 90.1158 75.6763 90.0887C75.6763 90.0347 75.7324 90.0077 75.8166 90.0077C76.2096 90.0077 76.7149 90.0347 76.771 90.0347C76.8271 90.0347 77.2482 90.0077 77.5289 90.0077C77.6131 90.0077 77.6692 90.0347 77.6692 90.0887C77.6692 90.1158 77.6411 90.1428 77.585 90.1428C77.5289 90.1428 77.4727 90.1428 77.3605 90.1698C77.1078 90.2238 77.0517 90.3589 77.0236 90.6561C76.9955 90.9263 76.9955 91.1694 76.9955 92.5203V93.4389C76.9955 94.3845 76.8833 95.4112 76.1815 96.0326C75.5359 96.5729 74.8623 96.681 74.329 96.681C74.0202 96.681 73.122 96.654 72.4764 96.0596C72.0273 95.6543 71.6904 95.0599 71.6904 93.7901V92.4933" fill="#0C0C16"/>
<path d="M81.9357 95.3301C81.9638 96.0326 82.048 96.2757 82.2726 96.3298C82.441 96.3838 82.6375 96.3838 82.7217 96.3838C82.7778 96.3838 82.8059 96.4108 82.8059 96.4378C82.8059 96.4919 82.7497 96.5189 82.6375 96.5189C82.1322 96.5189 81.7673 96.4919 81.6831 96.4919C81.5989 96.4919 81.234 96.5189 80.8129 96.5189C80.7287 96.5189 80.6726 96.5189 80.6726 96.4378C80.6726 96.4108 80.7007 96.3838 80.7568 96.3838C80.841 96.3838 80.9814 96.3838 81.1217 96.3298C81.3463 96.2757 81.4024 96.0056 81.4024 95.222V90.2779C81.4024 89.9266 81.4305 89.8456 81.5147 89.8456C81.5989 89.8456 81.7392 90.0347 81.8234 90.1158C81.9638 90.2509 83.3111 91.6558 84.6865 93.0877C85.5847 94.0063 86.5672 95.0599 86.8479 95.3571L86.7356 90.9533C86.7356 90.3859 86.6514 90.1968 86.3988 90.1428C86.2303 90.1158 86.0339 90.0888 85.9497 90.0888C85.8935 90.0888 85.8654 90.0617 85.8654 90.0347C85.8654 89.9807 85.9497 89.9807 86.0339 89.9807C86.4268 89.9807 86.8759 90.0077 86.9602 90.0077C87.0724 90.0077 87.3531 89.9807 87.718 89.9807C87.8022 89.9807 87.8864 89.9807 87.8864 90.0347C87.8864 90.0617 87.8584 90.0888 87.7742 90.0888C87.718 90.0888 87.6619 90.0888 87.5496 90.1158C87.2408 90.1698 87.2128 90.3589 87.2128 90.8723L87.2409 95.9515C87.2409 96.5189 87.2128 96.5729 87.1566 96.5729C87.0724 96.5729 86.9882 96.4919 86.511 96.0056C86.3988 95.9245 85.1076 94.6547 84.1532 93.655C83.1146 92.5743 82.1041 91.4937 81.7954 91.1694L81.9357 95.3301Z" fill="#0C0C16"/>
<path d="M92.7425 94.0063C92.7425 94.8438 92.7425 95.5192 92.7986 95.8705C92.8267 96.1136 92.8828 96.3027 93.1355 96.3568C93.2758 96.3838 93.4442 96.3838 93.5284 96.3838C93.5846 96.3838 93.6127 96.4108 93.6127 96.4378C93.6127 96.4918 93.5565 96.5189 93.4723 96.5189C92.9671 96.5189 92.4057 96.4918 92.3776 96.4918C92.3215 96.4918 91.7601 96.5189 91.5074 96.5189C91.3952 96.5189 91.3671 96.4918 91.3671 96.4378C91.3671 96.4108 91.3952 96.3838 91.4513 96.3838C91.5355 96.3838 91.6478 96.3568 91.732 96.3568C91.9004 96.3297 91.9566 96.1406 91.9846 95.8705C92.0408 95.5192 92.0408 94.8168 92.0408 94.0063V92.4933C92.0408 91.1424 92.0408 90.8993 92.0127 90.6291C91.9846 90.3319 91.9004 90.1968 91.7039 90.1428C91.5916 90.1158 91.4794 90.1158 91.4232 90.1158C91.3952 90.1158 91.339 90.0887 91.339 90.0617C91.339 90.0077 91.3952 89.9807 91.4794 89.9807C91.7881 89.9807 92.3495 90.0077 92.3776 90.0077C92.4337 90.0077 92.9951 89.9807 93.2477 89.9807C93.36 89.9807 93.3881 90.0077 93.3881 90.0617C93.3881 90.0887 93.36 90.1158 93.3039 90.1158C93.2478 90.1158 93.1916 90.1158 93.0793 90.1428C92.8267 90.1968 92.7706 90.3319 92.7425 90.6291C92.7144 90.8993 92.7144 91.1424 92.7144 92.4933V94.0063" fill="#0C0C16"/>
<path d="M99.4515 95.4652C99.9848 94.3034 101.164 91.2775 101.388 90.6561C101.444 90.521 101.472 90.4129 101.472 90.3319C101.472 90.2508 101.444 90.1698 101.36 90.1428C101.248 90.1158 101.108 90.1158 101.023 90.1158C100.967 90.1158 100.911 90.1158 100.911 90.0617C100.911 90.0077 100.967 89.9807 101.108 89.9807C101.472 89.9807 101.894 90.0077 101.978 90.0077C102.034 90.0077 102.427 89.9807 102.679 89.9807C102.792 89.9807 102.82 90.0077 102.82 90.0347C102.82 90.0887 102.792 90.0887 102.708 90.0887C102.651 90.0887 102.455 90.0887 102.287 90.1968C102.174 90.2779 102.034 90.4129 101.781 91.0073C101.697 91.2505 101.22 92.2771 100.771 93.3578C100.209 94.6277 99.8164 95.5462 99.6199 95.9785C99.3673 96.4918 99.3392 96.6269 99.2269 96.6269C99.1147 96.6269 99.0866 96.4918 98.9182 96.0866L96.7288 90.7912C96.5323 90.3049 96.3919 90.2238 96.0832 90.1158C95.9428 90.0887 95.8025 90.0887 95.7463 90.0887C95.6902 90.0887 95.6621 90.0617 95.6621 90.0347C95.6621 89.9807 95.7463 89.9807 95.8867 89.9807C96.3077 89.9807 96.841 90.0077 96.9252 90.0077C97.0095 90.0077 97.4305 89.9807 97.7673 89.9807C97.9357 89.9807 98.0199 90.0077 98.0199 90.0347C98.0199 90.0887 97.9919 90.0887 97.9357 90.0887C97.8235 90.0887 97.6831 90.0887 97.5989 90.1428C97.4866 90.1968 97.4866 90.2508 97.4866 90.3049C97.4866 90.413 97.5989 90.6831 97.7393 91.0343L99.4515 95.4652Z" fill="#0C0C16"/>
<path d="M105.627 92.4933C105.627 91.1425 105.627 90.8993 105.599 90.6291C105.57 90.332 105.514 90.1969 105.206 90.1428C105.121 90.1158 104.981 90.1158 104.897 90.1158C104.869 90.1158 104.813 90.0888 104.813 90.0618C104.813 90.0077 104.869 89.9807 104.953 89.9807C105.149 89.9807 105.402 89.9807 105.599 89.9807L105.963 90.0077C106.02 90.0077 107.816 90.0077 108.013 90.0077C108.181 90.0077 108.321 89.9807 108.405 89.9537C108.462 89.9537 108.49 89.8997 108.518 89.8997C108.546 89.8997 108.546 89.9267 108.546 89.9807C108.546 90.0348 108.49 90.1428 108.462 90.386C108.462 90.467 108.434 90.8453 108.405 90.9534C108.405 91.0074 108.377 91.0614 108.349 91.0614C108.293 91.0614 108.265 91.0074 108.265 90.9534C108.265 90.8993 108.265 90.7372 108.209 90.6291C108.153 90.4941 108.069 90.386 107.563 90.332C107.423 90.3049 106.441 90.3049 106.328 90.3049C106.3 90.3049 106.272 90.332 106.272 90.386V92.7635C106.272 92.8175 106.272 92.8446 106.328 92.8446C106.441 92.8446 107.563 92.8446 107.76 92.8175C107.984 92.7905 108.097 92.7905 108.181 92.6825C108.237 92.6014 108.293 92.5744 108.321 92.5744C108.349 92.5744 108.377 92.6014 108.377 92.6554C108.377 92.7095 108.321 92.8446 108.293 93.1418C108.265 93.3039 108.265 93.6281 108.265 93.7091C108.265 93.7902 108.265 93.8712 108.209 93.8712C108.153 93.8712 108.153 93.8442 108.153 93.7902C108.153 93.7091 108.153 93.6281 108.125 93.493C108.097 93.3849 108.012 93.2228 107.648 93.1958C107.395 93.1688 106.525 93.1418 106.356 93.1418C106.3 93.1418 106.3 93.1688 106.3 93.1958V93.9523C106.3 94.2495 106.3 95.2491 106.3 95.4382C106.328 96.0326 106.469 96.1407 107.339 96.1407C107.563 96.1407 107.956 96.1407 108.209 96.0326C108.434 95.9516 108.546 95.7624 108.602 95.4112C108.63 95.3302 108.63 95.2761 108.686 95.2761C108.742 95.2761 108.742 95.3302 108.742 95.4112C108.742 95.4923 108.658 96.0596 108.63 96.2487C108.574 96.4649 108.49 96.4649 108.153 96.4649C107.479 96.4649 106.974 96.4379 106.637 96.4379C106.3 96.4109 106.076 96.4109 105.935 96.4109C105.907 96.4109 105.767 96.4109 105.57 96.4109C105.402 96.4109 105.177 96.4379 105.037 96.4379C104.953 96.4379 104.897 96.4109 104.897 96.3568C104.897 96.3298 104.925 96.3028 104.981 96.3028C105.065 96.3028 105.177 96.2758 105.262 96.2758C105.43 96.2487 105.486 96.0596 105.514 95.7895C105.57 95.4382 105.57 94.7358 105.57 93.9253V92.4933" fill="#0C0C16"/>
<path d="M112.812 92.4933C112.812 91.1424 112.812 90.8993 112.784 90.6291C112.756 90.3319 112.7 90.1968 112.391 90.1428C112.307 90.1158 112.167 90.1158 112.082 90.1158C112.054 90.1158 111.998 90.0887 111.998 90.0617C111.998 90.0077 112.054 89.9807 112.139 89.9807C112.532 89.9807 113.121 90.0077 113.149 90.0077C113.261 90.0077 113.935 89.9807 114.216 89.9807C114.777 89.9807 115.395 90.0347 115.872 90.3589C116.096 90.521 116.489 90.9263 116.489 91.5477C116.489 92.1961 116.209 92.8175 115.395 93.547C116.124 94.4656 116.742 95.222 117.275 95.7624C117.753 96.2487 118.146 96.3568 118.37 96.3838C118.538 96.4108 118.679 96.4108 118.707 96.4108C118.763 96.4108 118.791 96.4378 118.791 96.4648C118.791 96.5189 118.735 96.5459 118.567 96.5459H117.921C117.416 96.5459 117.191 96.4918 116.967 96.3838C116.574 96.1947 116.265 95.7624 115.76 95.114C115.367 94.6277 114.946 94.0603 114.777 93.8442C114.749 93.8171 114.721 93.7901 114.665 93.7901L113.57 93.7631C113.514 93.7631 113.514 93.7901 113.514 93.8442V94.0603C113.514 94.8978 113.514 95.5733 113.57 95.9245C113.598 96.1676 113.654 96.3568 113.935 96.4108C114.047 96.4378 114.244 96.4378 114.328 96.4378C114.384 96.4378 114.412 96.4648 114.412 96.4918C114.412 96.5459 114.356 96.5729 114.272 96.5729C113.767 96.5729 113.205 96.5459 113.177 96.5459C113.177 96.5459 112.616 96.5729 112.335 96.5729C112.223 96.5729 112.195 96.5459 112.195 96.4918C112.195 96.4648 112.223 96.4378 112.279 96.4378C112.363 96.4378 112.475 96.4108 112.56 96.4108C112.728 96.3838 112.784 96.1947 112.812 95.9245C112.868 95.5733 112.868 94.8708 112.868 94.0603V92.4933H112.812ZM113.542 93.2498C113.542 93.3038 113.57 93.3308 113.598 93.3578C113.739 93.4389 114.16 93.4929 114.553 93.4929C114.777 93.4929 115.03 93.4659 115.226 93.3308C115.535 93.1147 115.76 92.6554 115.76 92.007C115.76 90.9263 115.17 90.2779 114.216 90.2779C113.935 90.2779 113.711 90.3049 113.626 90.3319C113.57 90.3589 113.542 90.3859 113.542 90.44V93.2498Z" fill="#0C0C16"/>
<path d="M120.896 96.4108C120.784 96.3568 120.756 96.3298 120.756 96.0866C120.756 95.6543 120.784 95.3031 120.812 95.168C120.812 95.06 120.84 95.0329 120.896 95.0329C120.953 95.0329 120.953 95.06 120.953 95.141C120.953 95.2221 120.953 95.3301 120.981 95.4652C121.121 96.1136 121.71 96.3568 122.3 96.3568C123.17 96.3568 123.591 95.7624 123.591 95.1951C123.591 94.6007 123.338 94.2494 122.552 93.628L122.16 93.3038C121.205 92.5474 120.981 92.007 120.981 91.4396C120.981 90.5211 121.71 89.8726 122.833 89.8726C123.198 89.8726 123.451 89.8997 123.675 89.9537C123.844 89.9807 123.928 90.0077 123.984 90.0077C124.068 90.0077 124.068 90.0347 124.068 90.0618C124.068 90.1158 124.04 90.386 124.04 90.9803C124.04 91.1154 124.012 91.1695 123.984 91.1695C123.928 91.1695 123.928 91.1154 123.928 91.0614C123.928 90.9533 123.872 90.7372 123.816 90.6291C123.759 90.5211 123.507 90.1698 122.693 90.1698C122.075 90.1698 121.598 90.5481 121.598 91.1695C121.598 91.6558 121.823 91.98 122.693 92.6284L122.945 92.8175C124.012 93.628 124.265 94.1684 124.265 94.8438C124.265 95.1951 124.124 95.8435 123.507 96.2757C123.114 96.5459 122.637 96.627 122.16 96.627C121.682 96.627 121.261 96.5729 120.896 96.4108Z" fill="#0C0C16"/>
<path d="M129.177 94.0063C129.177 94.8438 129.177 95.5192 129.233 95.8705C129.261 96.1136 129.317 96.3027 129.57 96.3568C129.682 96.3838 129.879 96.3838 129.963 96.3838C130.019 96.3838 130.047 96.4108 130.047 96.4378C130.047 96.4918 129.991 96.5189 129.907 96.5189C129.402 96.5189 128.84 96.4918 128.812 96.4918C128.756 96.4918 128.195 96.5189 127.942 96.5189C127.83 96.5189 127.802 96.4918 127.802 96.4378C127.802 96.4108 127.83 96.3838 127.886 96.3838C127.97 96.3838 128.082 96.3568 128.167 96.3568C128.363 96.3297 128.391 96.1406 128.419 95.8705C128.475 95.5192 128.475 94.8168 128.475 94.0063V92.4933C128.475 91.1424 128.475 90.8993 128.447 90.6291C128.419 90.3319 128.335 90.1968 128.138 90.1428C128.054 90.1158 127.914 90.1158 127.858 90.1158C127.83 90.1158 127.774 90.0887 127.774 90.0617C127.774 90.0077 127.83 89.9807 127.914 89.9807C128.223 89.9807 128.784 90.0077 128.812 90.0077C128.868 90.0077 129.43 89.9807 129.682 89.9807C129.795 89.9807 129.823 90.0077 129.823 90.0617C129.823 90.0887 129.795 90.1158 129.738 90.1158C129.682 90.1158 129.626 90.1158 129.514 90.1428C129.261 90.1968 129.205 90.3319 129.177 90.6291C129.149 90.8993 129.149 91.1424 129.149 92.4933V94.0063" fill="#0C0C16"/>
<path d="M135.773 94.0063C135.773 94.8438 135.773 95.5193 135.83 95.8705C135.858 96.1136 135.914 96.3028 136.166 96.3568C136.307 96.3838 136.503 96.3838 136.559 96.3838C136.616 96.3838 136.644 96.4108 136.644 96.4378C136.644 96.4919 136.587 96.5189 136.503 96.5189C135.998 96.5189 135.437 96.4919 135.409 96.4919C135.38 96.4919 134.791 96.5189 134.538 96.5189C134.454 96.5189 134.398 96.4919 134.398 96.4378C134.398 96.4108 134.426 96.3838 134.482 96.3838C134.566 96.3838 134.679 96.3568 134.763 96.3568C134.931 96.3298 134.987 96.1407 135.016 95.8705C135.072 95.5193 135.072 94.8168 135.072 94.0063V90.3589L133.752 90.386C133.191 90.386 132.966 90.467 132.826 90.6561C132.714 90.7912 132.686 90.8723 132.686 90.9263C132.658 91.0074 132.63 91.0074 132.602 91.0074C132.573 91.0074 132.545 90.9803 132.545 90.9263C132.545 90.8453 132.714 90.0888 132.742 90.0347C132.77 89.9807 132.798 89.8726 132.826 89.8726C132.882 89.8726 132.966 89.9537 133.219 89.9807C133.472 90.0077 133.809 90.0347 133.921 90.0347H137.289C137.57 90.0347 137.794 90.0077 137.935 89.9807C138.075 89.9537 138.159 89.9267 138.187 89.9267C138.244 89.9267 138.244 89.9807 138.244 90.0347C138.244 90.3049 138.215 90.8993 138.215 90.9803C138.215 91.0614 138.187 91.0884 138.159 91.0884C138.103 91.0884 138.103 91.0614 138.075 90.9533V90.8453C138.047 90.5751 137.822 90.386 136.98 90.3589L135.858 90.3319V94.0063" fill="#0C0C16"/>
<path d="M142.762 94.2764C142.762 93.8171 142.678 93.628 142.566 93.3578C142.51 93.2228 141.303 91.3045 140.994 90.8722C140.769 90.548 140.545 90.3319 140.377 90.2238C140.236 90.1428 140.068 90.0887 139.984 90.0887C139.927 90.0887 139.899 90.0617 139.899 90.0347C139.899 90.0077 139.927 89.9807 140.012 89.9807C140.18 89.9807 140.854 90.0077 140.91 90.0077C140.966 90.0077 141.303 89.9807 141.668 89.9807C141.78 89.9807 141.78 90.0077 141.78 90.0347C141.78 90.0617 141.724 90.0887 141.64 90.1158C141.555 90.1428 141.527 90.1968 141.527 90.2779C141.527 90.3859 141.583 90.494 141.64 90.6021C141.78 90.8452 143.127 93.0877 143.296 93.3308C143.464 92.9796 144.615 91.0614 144.783 90.7912C144.896 90.6021 144.924 90.467 144.924 90.3589C144.924 90.2508 144.896 90.1428 144.783 90.1158C144.699 90.0887 144.643 90.0617 144.643 90.0347C144.643 90.0077 144.699 89.9807 144.783 89.9807C145.008 89.9807 145.317 90.0077 145.373 90.0077C145.429 90.0077 146.075 89.9807 146.243 89.9807C146.299 89.9807 146.355 90.0077 146.355 90.0347C146.355 90.0887 146.299 90.1158 146.243 90.1158C146.131 90.1158 145.962 90.1428 145.822 90.2238C145.654 90.3319 145.541 90.44 145.345 90.6561C145.036 91.0073 143.801 93.0336 143.633 93.4119C143.492 93.7361 143.492 93.9792 143.492 94.2764V95.0329C143.492 95.168 143.492 95.5462 143.52 95.8975C143.548 96.1406 143.633 96.3297 143.885 96.3838C144.026 96.4108 144.222 96.4108 144.278 96.4108C144.334 96.4108 144.362 96.4378 144.362 96.4648C144.362 96.5189 144.306 96.5459 144.222 96.5459C143.717 96.5459 143.155 96.5189 143.127 96.5189C143.071 96.5189 142.51 96.5459 142.257 96.5459C142.173 96.5459 142.117 96.5189 142.117 96.4648C142.117 96.4378 142.145 96.4108 142.201 96.4108C142.285 96.4108 142.398 96.3838 142.482 96.3838C142.65 96.3568 142.734 96.1676 142.762 95.8975C142.79 95.5462 142.79 95.168 142.79 95.0329V94.2764" fill="#0C0C16"/>
</svg>
