<svg width="184" height="184" viewBox="0 0 184 184" fill="none" xmlns="http://www.w3.org/2000/svg">
<path fill-rule="evenodd" clip-rule="evenodd" d="M107.491 102.839C107.241 103.187 107.118 103.644 107.118 104.233C107.118 105.518 107.59 106.161 108.512 106.161C108.935 106.161 109.284 105.975 109.532 105.654C109.78 105.333 109.905 104.848 109.905 104.233C109.905 102.972 109.433 102.357 108.512 102.357C108.089 102.357 107.739 102.518 107.491 102.839ZM104.927 101.847L104.354 102.839C104.03 102.518 103.607 102.384 103.059 102.384C102.535 102.384 102.136 102.544 101.84 102.893C101.541 103.241 101.39 103.697 101.39 104.312C101.39 105.518 101.963 106.136 103.133 106.136C103.657 106.136 104.105 105.948 104.478 105.628L104.976 106.697C104.577 106.939 104.229 107.102 103.932 107.154C103.657 107.234 103.282 107.26 102.883 107.26C101.988 107.26 101.267 106.994 100.745 106.485C100.221 105.948 99.9722 105.224 99.9722 104.312C99.9722 103.403 100.246 102.653 100.816 102.115C101.39 101.552 102.187 101.285 103.159 101.285C103.856 101.285 104.429 101.473 104.927 101.847ZM110.578 102.089C111.075 102.572 111.325 103.321 111.325 104.233C111.325 105.169 111.075 105.894 110.553 106.43C110.055 106.994 109.381 107.26 108.512 107.26C107.615 107.26 106.917 106.994 106.445 106.43C105.947 105.894 105.698 105.146 105.698 104.233C105.698 103.349 105.947 102.653 106.469 102.115C106.992 101.552 107.664 101.285 108.512 101.285C109.407 101.285 110.079 101.552 110.578 102.089ZM117.574 101.446C117.873 101.338 118.172 101.285 118.494 101.285C119.144 101.285 119.641 101.473 120.014 101.821C120.362 102.198 120.562 102.678 120.562 103.321V107.154H119.192V103.508C119.192 102.76 118.845 102.384 118.146 102.384C117.947 102.384 117.749 102.438 117.549 102.572C117.374 102.678 117.25 102.813 117.15 102.972V107.154H115.806V103.321C115.806 103.026 115.706 102.786 115.533 102.626C115.359 102.464 115.108 102.384 114.786 102.384C114.611 102.384 114.412 102.438 114.212 102.572C114.015 102.704 113.864 102.839 113.765 102.972V107.154H112.421V101.393H113.343L113.64 101.901C114.015 101.473 114.486 101.285 115.108 101.285C115.879 101.285 116.453 101.501 116.853 101.901C117.026 101.713 117.25 101.552 117.574 101.446ZM94.7183 104.957C94.7183 104.046 95.3902 103.321 96.2113 103.321C97.0096 103.321 97.6824 104.046 97.6824 104.957C97.6824 105.84 97.0096 106.563 96.2113 106.563C95.3902 106.563 94.7183 105.84 94.7183 104.957ZM92.9755 101.578V107.02C92.9755 107.717 93.5243 108.28 94.17 108.28H122.38C123.026 108.28 123.574 107.717 123.574 107.02V101.578C123.574 100.885 123.026 100.293 122.38 100.293H94.17C93.5243 100.293 92.9755 100.885 92.9755 101.578Z" fill="#0C0C16"/>
<path fill-rule="evenodd" clip-rule="evenodd" d="M136.268 94.8212C136.115 95.2881 135.963 95.7569 135.781 96.2139C135.762 96.2629 135.575 96.7582 135.546 96.7538C135.531 96.75 135.515 96.746 135.501 96.7428C135.26 96.6915 135.018 96.6408 134.777 96.5902C133.816 96.3882 132.856 96.1827 131.895 95.9811C131.045 95.8008 130.194 95.621 129.343 95.4417C129.321 94.9814 129.321 94.5229 129.302 94.0625C129.281 93.5943 129.347 93.1296 129.342 92.6626C130.847 93.0021 132.351 93.3432 133.856 93.6822C134.716 93.8778 135.578 94.0736 136.439 94.2667C136.379 94.4499 136.322 94.6352 136.268 94.8212ZM129.683 89.2076C129.891 88.2099 130.05 87.2052 130.29 86.2149C130.411 85.718 130.561 85.2325 130.72 84.7482C130.755 84.6357 131.103 83.518 131.139 83.5258C131.838 83.6822 132.534 83.8398 133.233 83.995C134.098 84.1888 134.966 84.3832 135.832 84.5774L129.604 89.8008C129.63 89.6022 129.656 89.404 129.683 89.2076ZM132.282 80.9207C132.749 80.1265 133.21 79.3427 133.88 78.6986C134.398 78.2017 135.202 77.6756 135.891 78.1822C136.481 78.6152 136.804 79.4135 137.032 80.0764C137.338 80.9565 137.513 81.9222 137.598 82.8468C135.722 82.4015 133.838 81.9924 131.959 81.5676C132.067 81.3517 132.176 81.1362 132.282 80.9207ZM131.27 90.8467L137.726 85.0817C137.736 86.2567 137.7 87.4335 137.567 88.6003C137.434 89.7759 137.221 90.9464 136.977 92.1031C135.404 91.7564 133.831 91.4112 132.258 91.0638C131.929 90.9927 131.598 90.9197 131.27 90.8467ZM135.934 75.2257C134.509 74.9252 133.297 75.7663 132.449 76.8251C131.473 78.0437 130.825 79.5286 130.299 80.982C129.601 82.9103 129.108 84.9197 128.727 86.932C128.334 89.0003 128.091 91.0978 128.022 93.2025C127.987 94.2406 127.988 95.2849 128.048 96.3218C128.078 96.8356 128.127 97.3476 128.201 97.8574C128.236 98.1009 128.278 98.3435 128.328 98.5847C128.352 98.7054 128.377 98.8256 128.406 98.9448C128.433 98.9719 128.546 98.9347 128.575 98.9275C129.482 98.7355 130.464 98.6909 131.39 98.7538C132.384 98.8201 133.304 99.1207 134.168 99.611C134.377 99.729 134.582 99.8548 134.78 99.9885C134.883 100.059 134.984 100.131 135.083 100.204C135.174 100.27 135.246 100.359 135.346 100.408C135.608 99.9957 135.841 99.5704 136.053 99.1311C136.479 98.2529 136.82 97.3366 137.131 96.4125C137.791 94.466 138.294 92.4722 138.647 90.4483C139.007 88.391 139.238 86.3068 139.304 84.2206C139.361 82.4483 139.302 80.6347 138.878 78.9059C138.498 77.3377 137.682 75.5954 135.934 75.2257Z" fill="#0C0C16"/>
<path fill-rule="evenodd" clip-rule="evenodd" d="M59.3368 98.8205H46.6148C46.0667 98.8205 45.5932 98.6346 45.1954 98.2595C44.8214 97.8831 44.6228 97.454 44.6228 96.9725C44.6228 96.4342 44.8473 95.7388 45.3198 94.8555L54.432 77.4629H49.6522C48.4322 77.4629 47.585 77.6772 47.1378 78.0802C46.689 78.4815 46.4406 79.2852 46.4154 80.5444H44.8972V75.1055H56.2996C58.0177 75.1055 58.8888 75.8024 58.8888 77.1684C58.8888 77.5702 58.7654 78.0523 58.49 78.5617L49.0794 96.4892H59.3368V98.8205Z" fill="#0C0C16"/>
<path fill-rule="evenodd" clip-rule="evenodd" d="M67.7132 94.816V91.5463C65.0975 91.7055 63.7782 92.6718 63.7782 94.4937C63.7782 95.9399 64.2764 96.6897 65.2733 96.6897C66.3428 96.6897 67.1395 96.0488 67.7132 94.816ZM71.372 96.8789H69.629C68.8833 96.8789 68.2609 97.0642 67.7867 97.4685C66.8411 98.1926 66.3683 98.595 66.3181 98.6218C65.7203 98.9963 65.0237 99.1834 64.2517 99.1834C63.0072 99.1834 61.9616 98.781 61.1152 97.9771C60.2681 97.174 59.845 96.2093 59.845 95.0821C59.845 91.7873 62.4836 89.9916 67.7132 89.7244V88.2232C67.7132 86.7776 67.6121 85.7321 67.3636 85.0866C67.1395 84.4435 66.7173 84.1235 66.1438 84.1235C65.5716 84.1235 65.1722 84.3918 64.9992 84.9808C64.9743 85.0074 64.8744 85.6237 64.7001 86.7776C64.5252 87.9277 63.8284 88.5454 62.5585 88.5454L60.5424 86.4809C60.5918 85.2229 61.1152 84.2047 62.1099 83.4529C63.1324 82.6763 64.476 82.3018 66.1688 82.3018C68.0617 82.3018 69.4051 82.7832 70.2016 83.6955C70.9736 84.6323 71.372 86.2121 71.372 88.4113V96.8789Z" fill="#0C0C16"/>
<path fill-rule="evenodd" clip-rule="evenodd" d="M76.8618 91.9506C76.8618 95.218 77.7582 96.8268 79.5259 96.8268C81.2432 96.8268 82.0906 94.7639 82.0906 90.662C82.0906 86.7253 81.2693 84.7404 79.5997 84.7404C78.4799 84.7404 77.5588 85.8398 76.8618 88.0632V91.9506ZM73.2763 85.2231H73.75C73.9733 85.2508 74.1231 85.2508 74.1982 85.2508C75.2185 85.2508 75.8912 85.1161 76.266 84.848C76.8871 84.2845 77.5339 83.7228 78.2062 83.1334C78.928 82.5702 79.7498 82.3018 80.6705 82.3018C82.3396 82.3018 83.6589 83.0265 84.6293 84.5255C85.5994 86.0268 86.0991 88.0909 86.0991 90.7438C86.0991 93.4786 85.5757 95.5949 84.5547 97.0962C83.5339 98.5697 82.0906 99.3187 80.2481 99.3187C78.8534 99.3187 77.7325 98.7556 76.8618 97.6585V104.035C76.8618 104.598 76.6879 105.055 76.3637 105.43C76.016 105.805 75.5925 105.991 75.0949 105.991C74.5713 105.991 74.1476 105.805 73.7995 105.404C73.4509 105.028 73.2763 104.572 73.2763 104.035V85.2231Z" fill="#0C0C16"/>
<path fill-rule="evenodd" clip-rule="evenodd" d="M91.1883 91.9506C91.1883 95.218 92.0602 96.8268 93.851 96.8268C95.5693 96.8268 96.4157 94.7639 96.4157 90.662C96.4157 86.7253 95.5693 84.7404 93.9017 84.7404C92.7824 84.7404 91.8857 85.8398 91.1883 88.0632V91.9506ZM87.603 85.2231H88.0751C88.2751 85.2508 88.4241 85.2508 88.5242 85.2508C89.5446 85.2508 90.2169 85.1161 90.5907 84.848C91.2118 84.2845 91.861 83.7228 92.5068 83.1334C93.2547 82.5702 94.0765 82.3018 94.9953 82.3018C96.6404 82.3018 97.9603 83.0265 98.9317 84.5255C99.9023 86.0268 100.375 88.0909 100.375 90.7438C100.375 93.4786 99.8763 95.5949 98.8559 97.0962C97.8106 98.5697 96.4157 99.3187 94.5748 99.3187C93.1791 99.3187 92.0602 98.7556 91.1883 97.6585V104.035C91.1883 104.598 91.0144 105.055 90.6649 105.43C90.3413 105.805 89.9182 105.991 89.3965 105.991C88.8974 105.991 88.4743 105.805 88.1256 105.404C87.7775 105.028 87.603 104.572 87.603 104.035V85.2231Z" fill="#0C0C16"/>
<path fill-rule="evenodd" clip-rule="evenodd" d="M110.669 92.2439C110.669 89.7495 110.594 88.0875 110.469 87.3393C110.146 85.2231 109.349 84.1504 108.13 84.1504C107.182 84.1504 106.511 84.6857 106.113 85.7841C105.714 86.8568 105.515 88.5456 105.515 90.8763C105.515 93.1256 105.714 94.7354 106.064 95.7262C106.461 96.7993 107.131 97.3354 108.104 97.3354C109.797 97.3354 110.669 95.6472 110.669 92.2439ZM114.255 90.8763C114.255 96.3974 112.187 99.1834 108.104 99.1834C103.996 99.1834 101.93 96.3974 101.93 90.8763C101.93 85.1684 103.996 82.3018 108.104 82.3018C109.995 82.3018 111.491 83.052 112.611 84.5778C113.704 86.079 114.255 88.1966 114.255 90.8763Z" fill="#0C0C16"/>
<path fill-rule="evenodd" clip-rule="evenodd" d="M122.978 86.4811C122.978 85.0617 122.206 84.3647 120.662 84.3647C119.343 84.3647 118.697 84.9002 118.697 86.0258C118.697 86.7233 119.393 87.4991 120.786 88.4115C121.484 88.8401 122.306 89.4024 123.252 90.0447C124.522 91.2526 125.169 92.7004 125.169 94.3337C125.169 95.7531 124.695 96.9319 123.75 97.8181C122.804 98.7014 121.584 99.1289 120.066 99.1289C118.72 99.1289 117.626 98.8901 116.781 98.3791C115.933 97.8705 115.483 97.2281 115.483 96.505C115.483 96.049 115.807 95.8338 116.455 95.8338C116.63 95.8338 116.803 95.8338 116.928 95.8605C117.923 96.5862 118.845 96.9597 119.691 96.9597C121.111 96.9597 121.833 96.3976 121.833 95.2705C121.833 94.6535 121.559 94.1198 121.011 93.6094C120.786 93.369 120.066 92.8596 118.845 92.0286C117.626 91.1985 116.754 90.4471 116.255 89.7785C115.658 89.0003 115.361 88.0875 115.361 87.0438C115.361 85.5437 115.831 84.392 116.803 83.5604C117.749 82.7294 119.094 82.3018 120.863 82.3018C121.657 82.3018 122.804 82.5145 124.273 82.9459V86.4811H122.978Z" fill="#0C0C16"/>
<path fill-rule="evenodd" clip-rule="evenodd" d="M130.235 108.788C128.184 108.515 126.753 106.598 127.038 104.512C127.32 102.421 129.211 100.951 131.26 101.225C133.312 101.5 134.744 103.412 134.462 105.5C134.179 107.591 132.287 109.062 130.235 108.788Z" fill="#0C0C16"/>
</svg>
