<svg width="184" height="184" viewBox="0 0 184 184" fill="none" xmlns="http://www.w3.org/2000/svg">
<path d="M24.5636 83.868C24.5636 82.147 22.9262 81.7168 21.6334 81.7168V81.9749C22.4091 81.9749 23.0123 82.2331 23.0123 82.8354C23.0123 83.1796 22.7538 83.6959 21.9782 83.6959C21.3749 83.6959 20.0822 83.3517 19.1342 83.0075C18.0139 82.5773 16.9797 82.2331 16.1179 82.2331C14.3943 82.2331 13.1877 83.5238 13.1877 84.9867C13.1877 86.2774 14.1357 86.7077 14.4804 86.8798L14.5666 86.7077C14.3943 86.5356 14.1357 86.3635 14.1357 85.8472C14.1357 85.503 14.4804 84.9006 15.3423 84.9006C16.1179 84.9006 17.1521 85.2448 18.5309 85.6751C19.7375 86.0193 21.0302 86.2774 21.7196 86.3635V89.031L20.4269 90.1496V90.2357L21.7196 91.3543V95.0545C21.0302 95.4847 20.2546 95.5707 19.5651 95.5707C18.2724 95.5707 17.1521 95.2266 16.2041 94.194L19.7375 92.473V86.5356L15.4284 88.4286C15.7732 87.31 16.7211 86.5356 17.6691 86.0193L17.583 85.7611C14.9975 86.4495 12.6707 88.8589 12.6707 91.7846C12.6707 95.2266 15.5146 97.808 18.7033 97.808C22.1505 97.808 24.3912 95.0545 24.3912 92.2148H24.2189C23.7018 93.3335 22.9262 94.3661 21.9782 94.8824V91.3543L23.3571 90.2357V90.1496L21.9782 89.031V86.3635C23.2709 86.3635 24.5636 85.503 24.5636 83.868ZM17.0659 93.3335L16.0317 93.8498C15.4284 93.0753 15.0837 92.0427 15.0837 90.5799C15.0837 89.9775 15.0837 89.2891 15.2561 88.7728L17.0659 87.9984V93.3335V93.3335ZM26.201 95.3126L25.0807 96.1731L25.253 96.3452L25.7701 95.9149L27.6661 97.6359L30.2515 95.9149L30.1653 95.7428L29.4759 96.1731L28.6141 95.3126V89.4612L29.3035 88.9449L30.7686 90.1496V95.3986C30.7686 98.6685 30.0792 99.1848 28.6141 99.7011V99.9593C31.0271 100.045 33.2678 99.2709 33.2678 95.0545V89.3752L34.0435 88.7728L33.8711 88.6007L33.1817 89.117L31.0271 87.31L28.6141 89.117V82.061H28.4417L25.4254 84.1262V84.2983C25.7701 84.4704 26.2872 84.6425 26.2872 85.589L26.201 95.3126V95.3126ZM41.9721 94.3661L39.8176 96.001L37.6631 94.28V93.2474L41.7136 90.4938V90.4078L39.6452 87.31L35.1638 89.7194V95.3986L34.302 96.087L34.4744 96.2591L35.25 95.6568L38.1801 97.808L42.0583 94.7103L41.9721 94.3661V94.3661ZM37.6631 92.9032V88.6868L37.8354 88.6007L39.7314 91.6125L37.6631 92.9032ZM58.4326 83.0936C58.4326 82.8354 58.3464 82.5773 58.2602 82.3191H58.0879C57.8293 83.0075 57.4846 83.3517 56.6228 83.3517C55.8472 83.3517 55.3301 82.9215 54.9854 82.5773L52.4861 85.4169L52.6585 85.589L53.5203 84.8146C54.0374 85.2448 54.4683 85.589 55.6748 85.6751V92.8172L50.5902 84.1262C50.1593 83.4378 49.556 82.4912 48.3495 82.4912C46.9706 82.4912 45.764 83.6959 45.9364 85.589H46.1949C46.2811 85.0727 46.5397 84.4704 47.1429 84.4704C47.5738 84.4704 48.0047 84.9006 48.2633 85.3309V88.1705C46.712 88.1705 45.6779 88.8589 45.6779 90.1496C45.6779 90.838 46.0226 91.8706 47.0568 92.1288V91.9567C46.8844 91.7846 46.7982 91.6125 46.7982 91.3543C46.7982 90.9241 47.1429 90.5799 47.7462 90.5799H48.1771V94.194C46.3673 94.194 44.9022 95.2266 44.9022 96.9475C44.9022 98.5825 46.2811 99.3569 47.8324 99.2709V99.0988C46.8844 99.0127 46.4535 98.5825 46.4535 97.9801C46.4535 97.2057 46.9706 96.8615 47.66 96.8615C48.3495 96.8615 48.9527 97.2917 49.3836 97.808L51.8829 95.0545L51.7105 94.8824L51.1072 95.5707C50.1593 94.7103 49.6422 94.4521 48.5218 94.28V85.6751L55.4163 97.722H55.9334V85.6751C57.2261 85.589 58.4326 84.5564 58.4326 83.0936V83.0936ZM64.7238 94.3661L62.5693 96.001L60.4148 94.28V93.2474L64.4653 90.4938V90.4078L62.3969 87.31L57.9155 89.7194V95.3986L57.0537 96.087L57.2261 96.2591L58.0017 95.6568L60.9318 97.808L64.81 94.7103L64.7238 94.3661V94.3661ZM60.4148 92.9032V88.6868L60.5871 88.6007L62.4831 91.6125L60.4148 92.9032V92.9032ZM78.7713 88.2566L78.168 88.6868L76.5306 87.31L74.6346 89.031L75.4102 89.8054V96.2591L73.3419 94.9684V89.6333L74.0313 89.2031L72.0492 87.31L70.1532 89.031L70.9288 89.8054V96.001L70.6703 96.1731L68.8605 94.8824V89.7194C68.8605 88.5147 68.2572 88.1705 67.5678 87.7403C66.9645 87.31 66.6198 87.0519 66.6198 86.4495C66.6198 85.9332 67.1369 85.6751 67.3954 85.503V85.3309C66.706 85.3309 64.8962 86.0193 64.8962 87.6542C64.8962 88.5147 65.3271 88.8589 65.758 89.2891C66.1889 89.7194 66.6198 90.0636 66.6198 90.838V95.8289L65.6718 96.5173L65.8441 96.6894L66.706 96.001L68.6881 97.722L70.8426 96.2591L73.2557 97.722L77.8233 95.0545V89.2891L78.9436 88.4286L78.7713 88.2566V88.2566ZM94.8009 83.5238L93.9391 84.2983L92.0431 82.5773L89.1991 84.6425V82.7494H88.9406L89.0268 96.6894C88.7682 96.6894 87.9926 96.5173 87.3893 96.3452L87.217 84.7285C87.217 83.868 86.6137 82.6633 85.0624 82.6633C83.5112 82.6633 82.477 83.868 82.477 85.0727H82.7356C82.8218 84.5564 83.0803 84.1262 83.5974 84.1262C84.1145 84.1262 84.5454 84.4704 84.5454 85.589V88.9449C82.9941 89.031 82.0461 89.8915 82.0461 91.0101C82.0461 91.6985 82.3908 92.7311 83.425 92.7311V92.559C83.0803 92.3869 82.9941 92.1288 82.9941 91.9567C82.9941 91.4404 83.425 91.2683 84.1145 91.2683H84.4592V96.6033C83.1665 97.0336 82.6494 97.9801 82.6494 99.0127C82.6494 100.476 83.7697 101.508 85.4933 101.508C86.6999 101.508 87.7341 101.336 88.7682 101.078C89.63 100.906 90.7504 100.648 91.2675 100.648C91.9569 100.648 92.2154 100.992 92.2154 101.422C92.2154 102.024 91.9569 102.283 91.6122 102.369V102.541C92.9911 102.283 93.8529 101.422 93.8529 100.131C93.8529 98.8406 92.5602 98.0662 91.1813 98.0662C90.4918 98.0662 89.0268 98.3243 87.9926 98.4964C86.7861 98.7546 85.5795 98.9267 85.2348 98.9267C84.6315 98.9267 83.9421 98.6685 83.9421 97.808C83.9421 97.1196 84.5454 96.5173 86.0104 96.5173C86.7861 96.5173 87.734 96.6033 88.682 96.8615C89.7162 97.1196 90.6642 97.3778 91.526 97.3778C92.8187 97.3778 93.9391 96.9475 93.9391 95.1405V84.5564L94.9732 83.6959L94.8009 83.5238V83.5238ZM91.2675 88.7728C91.0089 89.031 90.6642 89.2891 90.2333 89.2891C89.8024 89.2891 89.3715 89.031 89.1991 88.7728V84.9867L90.0609 84.3843L91.2675 85.503V88.7728ZM91.2675 91.3543C91.0951 91.1822 90.6642 90.9241 90.2333 90.9241C89.8024 90.9241 89.3715 91.1822 89.1991 91.3543V89.117C89.3715 89.2891 89.8024 89.5473 90.2333 89.5473C90.6642 89.5473 91.0951 89.2891 91.2675 89.117V91.3543ZM91.2675 95.3986C91.2675 96.087 90.8366 96.7754 89.8886 96.7754H89.1991V91.6985C89.3715 91.5264 89.8024 91.2683 90.2333 91.2683C90.6642 91.2683 91.0089 91.5264 91.2675 91.6985V95.3986V95.3986ZM103.074 89.2891L100.316 87.31L96.0936 89.7194V95.3126L95.2318 96.001L95.318 96.1731L96.0074 95.6568L98.7652 97.722L103.074 95.1405V89.2891V89.2891ZM98.4205 94.7103V88.5147L100.575 90.0636V96.1731L98.4205 94.7103V94.7103ZM111.261 87.4821H111.089C110.83 87.6542 110.572 87.8263 110.313 87.8263C109.969 87.8263 109.538 87.6542 109.365 87.3961H109.193L107.728 89.031L106.263 87.3961L103.677 89.117L103.764 89.2891L104.453 88.8589L105.315 89.8054V95.2266L104.195 96.087L104.367 96.2591L104.884 95.8289L106.952 97.5499L109.624 95.7428L109.538 95.5707L108.762 96.001L107.728 95.1405V89.117C108.159 89.5473 108.676 89.9775 109.279 89.9775C110.486 90.0636 111.175 88.8589 111.261 87.4821V87.4821ZM121.603 95.7428L118.673 97.722L114.709 91.6985L117.553 87.31H117.725C118.07 87.6542 118.587 87.9984 119.19 87.9984C119.793 87.9984 120.224 87.6542 120.483 87.31H120.655C120.569 89.031 119.362 90.0636 118.501 90.0636C117.639 90.0636 117.208 89.6333 116.691 89.3752L116.432 89.8054L120.741 96.1731L121.603 95.6568V95.7428V95.7428ZM112.123 95.3126L111.003 96.1731L111.175 96.3452L111.692 95.9149L113.588 97.6359L116.174 95.9149L116.001 95.7428L115.312 96.1731L114.45 95.3126V82.061H114.364L111.261 84.1262V84.2983C111.606 84.4704 112.123 84.5564 112.123 85.589V95.3126V95.3126ZM135.909 83.868C135.909 82.147 134.272 81.7168 132.979 81.7168V81.9749C133.755 81.9749 134.358 82.2331 134.358 82.8354C134.358 83.1796 134.099 83.6959 133.324 83.6959C132.72 83.6959 131.428 83.3517 130.48 83.0075C129.359 82.6633 128.325 82.3191 127.463 82.3191C125.74 82.3191 124.533 83.6099 124.533 85.0727C124.533 86.3635 125.481 86.7937 125.826 86.9658L125.912 86.7937C125.654 86.6216 125.395 86.4495 125.395 85.9332C125.395 85.589 125.74 84.9867 126.602 84.9867C127.377 84.9867 128.411 85.3309 129.79 85.7611C130.997 86.1053 132.289 86.3635 132.979 86.4495V89.117L131.686 90.2357V90.3217L132.979 91.4404V95.1405C132.289 95.5707 131.514 95.6568 130.824 95.6568C129.532 95.6568 128.411 95.3126 127.463 94.28L130.997 92.559V86.5356L126.688 88.4286C127.119 87.31 128.067 86.5356 128.928 85.9332L128.842 85.7611C126.257 86.4495 123.93 88.7728 123.93 91.6985C123.93 95.1405 126.774 97.722 129.963 97.722C133.41 97.722 135.651 94.9684 135.651 92.1288H135.478C134.961 93.2474 134.185 94.28 133.237 94.7963V91.2683L134.616 90.1496V90.0636L133.324 88.9449V86.3635C134.616 86.3635 135.909 85.503 135.909 83.868V83.868ZM128.411 93.3335L127.377 93.8498C126.774 93.0753 126.429 92.0427 126.429 90.5799C126.429 89.9775 126.515 89.2891 126.688 88.7728L128.498 87.9984L128.411 93.3335V93.3335ZM138.925 83.0075H138.839L137.116 84.4704V84.5564L138.581 86.1914H138.753L140.477 84.7285V84.6425L138.925 83.0075V83.0075ZM141.511 95.7428L140.821 96.1731L139.96 95.3126V89.3752L140.821 88.7728L140.649 88.6007L140.046 89.117L138.494 87.31L135.995 89.031L136.168 89.2891L136.771 88.8589L137.546 89.8054V95.3986L136.426 96.2591L136.512 96.4312L137.116 96.001L139.012 97.722L141.597 96.001L141.511 95.7428V95.7428ZM155.903 95.6568L155.3 96.087L154.352 95.2266V89.3752L155.214 88.6868L155.041 88.5147L154.352 89.117L152.37 87.31L149.784 89.117L147.802 87.31L145.389 89.117L143.838 87.31L141.338 89.031L141.425 89.2891L142.028 88.8589L142.89 89.8054V95.3986L142.2 96.087L144.182 97.722L146.078 96.001L145.303 95.2266V89.3752L146.078 88.8589L147.371 90.0636V95.2266L146.682 95.9149L148.664 97.5499L150.56 95.8289L149.784 95.0545V89.3752L150.474 88.9449L151.852 90.1496V95.3126L151.249 95.9149L153.231 97.722L155.903 95.9149V95.6568V95.6568ZM163.401 94.3661L161.246 96.001L159.092 94.28V93.2474L163.142 90.4938V90.4078L161.074 87.31L156.592 89.7194V95.5707L159.609 97.722L163.487 94.6242L163.401 94.3661V94.3661ZM159.092 92.9032V88.6868L159.264 88.6007L161.16 91.6125L159.092 92.9032V92.9032ZM171.243 92.1288L169.606 90.838C170.726 89.8915 171.157 88.6007 171.157 87.7403V87.224H170.985C170.812 87.6542 170.468 88.0845 169.778 88.0845C169.089 88.0845 168.658 87.7403 168.227 87.224L164.349 89.3752V92.473L165.814 93.5916C164.349 94.8824 164.09 95.7428 164.09 96.4312C164.09 97.2917 164.521 97.8941 165.21 98.1522L165.297 97.9801C165.124 97.808 164.952 97.722 164.952 97.2917C164.952 97.0336 165.297 96.6033 165.986 96.6033C166.848 96.6033 167.365 97.2057 167.624 97.4638L171.329 95.2266V92.1288H171.243V92.1288ZM170.295 89.5473C169.692 90.5799 168.399 91.6125 167.624 92.1288L166.676 91.3543V88.3426C167.02 89.2031 167.968 89.8915 168.916 89.8915C169.52 89.8915 169.864 89.8054 170.295 89.5473V89.5473ZM168.83 96.4312C168.399 95.4847 167.365 94.7963 166.331 94.7963C166.072 94.7963 165.383 94.7963 164.693 95.2266C165.124 94.5382 166.245 93.3335 167.71 92.473L168.744 93.3335L168.83 96.4312V96.4312Z" fill="#0C0C16"/>
</svg>
