<svg width="184" height="184" viewBox="0 0 184 184" fill="none" xmlns="http://www.w3.org/2000/svg">
<path d="M77.3323 84.8386H79.88V91.4768C79.8016 94.3083 77.3323 96.5211 74.3926 96.4461C71.551 96.3711 69.2776 94.1958 69.1992 91.4768V84.8386H71.7469V91.4768C71.8057 92.9582 73.0992 94.1021 74.6474 94.0458C76.1172 93.9896 77.2735 92.8645 77.3323 91.4768V84.8386ZM89.7572 96.4461H92.3049V84.8386H89.7572V96.4461ZM35.7852 91.7956H40.9394V89.5079H35.7852V87.1451H41.1158V84.8386H33.2375V96.4461H41.2726V94.1396H35.7852V91.7956ZM57.617 96.221C58.1854 96.8774 59.91 97.2524 61.4582 97.0086L59.3612 99.0526C56.9115 99.0526 54.501 97.1961 53.9327 96.3898C50.6011 95.5647 48.6021 92.3206 49.4448 89.1328C50.3071 85.945 53.6975 84.0323 57.0291 84.8386C60.3607 85.645 62.3597 88.9078 61.517 92.0956C60.9878 94.0083 59.5376 95.546 57.617 96.221ZM59.1652 90.633C59.1652 88.6828 57.519 87.1076 55.4809 87.1076C53.4427 87.1076 51.7965 88.6828 51.7965 90.633C51.7965 92.5832 53.4427 94.1583 55.4809 94.1583C57.4994 94.1396 59.1456 92.5832 59.1652 90.633ZM146.159 90.3892L150.451 84.8011H147.296L144.591 88.3265L141.887 84.8011H138.732L143.043 90.3892L138.418 96.4461H141.573L144.631 92.4707L147.688 96.4461H150.823L146.159 90.3892ZM129.07 88.3828C130.364 89.8829 130.168 92.0956 128.6 93.3332C127.561 94.1583 126.15 94.3646 124.915 93.9146L123.387 95.921C126.444 97.4212 130.207 96.2773 131.775 93.352C133.029 91.0268 132.558 88.1952 130.599 86.3575L129.07 88.3828ZM110.08 92.0581L104.259 84.8199H101.81V96.4273H104.357V88.9453L110.374 96.4273H112.608V84.8386H110.06V92.0581H110.08ZM122.564 90.633C122.583 88.6828 124.229 87.1264 126.248 87.1076C126.718 87.1076 127.189 87.2014 127.62 87.3701L129.148 85.3637C126.111 83.8448 122.348 84.9512 120.741 87.8765C119.448 90.2204 119.938 93.1082 121.937 94.9459L123.426 92.9395C122.858 92.3019 122.544 91.4768 122.544 90.633H122.564Z" fill="#0C0C16"/>
</svg>
