<svg width="184" height="184" viewBox="0 0 184 184" fill="none" xmlns="http://www.w3.org/2000/svg">
<path d="M118.768 65.4151V118.768H65.4151V65.4151H118.768ZM119.361 64.8223H64.8223V119.361H119.361V64.8223Z" fill="#0C0C16"/>
<path d="M73.3854 98.6134L72.7093 97.1079H70.5647L70.5433 97.1661C70.354 97.6031 70.1505 98.1043 69.9685 98.5547H69.1691L70.899 94.8322C71.1823 94.2212 71.3716 93.7931 71.5314 93.372L71.7209 93.3205L73.4653 97.0645C73.6696 97.5154 73.9527 98.1043 74.1851 98.5547L73.3854 98.6134ZM72.4407 96.5114L71.6335 94.7016L70.8341 96.5114H72.4407Z" fill="#0C0C16"/>
<path d="M78.8396 98.6059L77.5308 96.5478H76.7387V97.5084C76.7387 97.7912 76.745 98.3512 76.7673 98.5546H75.9604C75.9969 98.2056 76.0111 97.2748 76.0111 96.8025V95.1953C76.0111 94.7302 75.9969 93.7928 75.9604 93.4437C76.222 93.4437 76.9633 93.4151 77.2978 93.4078C78.5777 93.3858 79.2824 94.0912 79.261 94.8975C79.239 95.6034 78.883 96.0685 78.1922 96.3808L78.9342 97.4716C79.1302 97.7477 79.5304 98.3078 79.6974 98.5109L78.8396 98.6059ZM76.7387 95.9449H77.4724C78.1412 95.9449 78.5122 95.5012 78.5122 94.9921C78.5122 94.367 78.1343 94.0405 77.371 94.0405C77.1381 94.0405 76.9346 94.0475 76.745 94.0614C76.7387 94.2072 76.7387 94.3745 76.7387 94.4831V95.9449Z" fill="#0C0C16"/>
<path d="M85.1222 94.0614C84.5621 94.0545 84.0753 94.0475 83.4282 94.0475C83.4204 94.2003 83.4204 94.3888 83.4204 94.5051V97.5084C83.4204 97.7912 83.4282 98.3512 83.4501 98.5547H82.6432C82.6794 98.2057 82.6936 97.2749 82.6936 96.8025V95.2252C82.6936 94.9271 82.6867 94.4547 82.6719 94.0475C82.0248 94.0475 81.5157 94.0545 80.9565 94.0614C80.9779 93.873 80.9854 93.6261 80.9854 93.4004C81.6468 93.4218 82.2652 93.4368 83.0574 93.4368C83.8498 93.4368 84.5109 93.4218 85.1806 93.4004C85.1441 93.6111 85.1294 93.8221 85.1222 94.0614Z" fill="#0C0C16"/>
<path d="M69.9538 106.569C69.9908 106.22 70.0047 105.289 70.0047 104.817V103.21C70.0047 102.744 69.9908 101.807 69.9538 101.458C70.2452 101.458 70.5213 101.451 70.761 101.422C70.7393 101.633 70.7321 102.214 70.7321 102.498V105.522C70.7321 105.798 70.7393 106.366 70.761 106.569H69.9538Z" fill="#0C0C16"/>
<path d="M77.6683 102.498L77.6182 105.566C77.6182 105.849 77.6106 106.438 77.6321 106.642L77.4434 106.693L74.1063 102.861V105.522C74.1063 105.806 74.1133 106.366 74.1353 106.569H73.3359C73.3796 106.22 73.4157 105.289 73.423 104.817L73.4519 103.065C73.4595 102.6 73.4595 101.734 73.423 101.386L73.6192 101.334L76.9855 105.224V103.21C76.9855 102.744 76.9707 101.807 76.9273 101.458C77.2179 101.458 77.4795 101.451 77.727 101.422C77.6978 101.633 77.6758 102.214 77.6683 102.498Z" fill="#0C0C16"/>
<path d="M81.2038 106.7C80.7312 106.7 80.1497 106.518 79.7717 106.271L79.8151 105.5C80.106 105.762 80.7022 106.045 81.2472 106.045C81.7928 106.045 82.1777 105.777 82.1777 105.238C82.1777 104.221 79.9749 104.17 79.9749 102.832C79.9749 102.011 80.6363 101.334 81.5818 101.334C82.0686 101.334 82.49 101.502 82.7742 101.713L82.5337 102.352C82.2868 102.149 81.8796 101.989 81.5531 101.989C81.0218 101.989 80.7022 102.273 80.7022 102.731C80.7022 103.639 82.8975 103.683 82.8975 105.137C82.8975 106.017 82.2579 106.7 81.2038 106.7Z" fill="#0C0C16"/>
<path d="M88.6704 102.076C88.1106 102.068 87.6238 102.062 86.9767 102.062C86.9689 102.214 86.9689 102.403 86.9689 102.519V105.522C86.9689 105.806 86.9767 106.366 86.9986 106.569H86.1917C86.2279 106.22 86.2421 105.289 86.2421 104.817V103.24C86.2421 102.941 86.2352 102.469 86.2201 102.062C85.5733 102.062 85.0642 102.068 84.505 102.076C84.5264 101.887 84.5336 101.64 84.5336 101.415C85.1953 101.436 85.8137 101.451 86.6059 101.451C87.3981 101.451 88.0594 101.436 88.7288 101.415C88.6926 101.625 88.6779 101.836 88.6704 102.076Z" fill="#0C0C16"/>
<path d="M90.6418 106.569C90.6791 106.22 90.693 105.289 90.693 104.817V103.21C90.693 102.744 90.6791 101.807 90.6418 101.458C90.9335 101.458 91.2094 101.451 91.449 101.422C91.4273 101.633 91.4201 102.214 91.4201 102.498V105.522C91.4201 105.798 91.4273 106.366 91.449 106.569H90.6418Z" fill="#0C0C16"/>
<path d="M97.4844 102.076C96.9244 102.068 96.4376 102.062 95.7904 102.062C95.7826 102.214 95.7826 102.403 95.7826 102.519V105.522C95.7826 105.806 95.7904 106.366 95.8124 106.569H95.0055C95.0417 106.22 95.0559 105.289 95.0559 104.817V103.24C95.0559 102.941 95.0489 102.469 95.0342 102.062C94.387 102.062 93.8779 102.068 93.3187 102.076C93.3402 101.887 93.3477 101.64 93.3477 101.415C94.009 101.436 94.6275 101.451 95.4197 101.451C96.2121 101.451 96.8732 101.436 97.5429 101.415C97.5064 101.625 97.4916 101.836 97.4844 102.076Z" fill="#0C0C16"/>
<path d="M103.898 101.466L102.27 105.188C102 105.806 101.826 106.227 101.681 106.648L101.492 106.7L99.8636 102.963C99.6668 102.505 99.3982 101.916 99.1797 101.472L99.9794 101.415L101.572 105.232L102.553 102.854C102.728 102.425 102.917 101.924 103.084 101.466H103.898Z" fill="#0C0C16"/>
<path d="M109.381 102.076C108.821 102.068 108.334 102.062 107.687 102.062C107.679 102.214 107.679 102.403 107.679 102.519V105.522C107.679 105.806 107.687 106.366 107.709 106.569H106.902C106.938 106.22 106.952 105.289 106.952 104.817V103.24C106.952 102.941 106.945 102.469 106.93 102.062C106.284 102.062 105.774 102.068 105.215 102.076C105.237 101.887 105.244 101.64 105.244 101.415C105.905 101.436 106.524 101.451 107.316 101.451C108.108 101.451 108.769 101.436 109.439 101.415C109.403 101.625 109.388 101.836 109.381 102.076Z" fill="#0C0C16"/>
<path d="M114.515 106.598C114.079 106.569 113.541 106.561 113.024 106.561C112.508 106.561 111.963 106.569 111.534 106.598C111.57 106.249 111.585 105.311 111.585 104.846V103.166C111.585 102.694 111.57 101.764 111.534 101.415C111.963 101.436 112.457 101.45 112.973 101.45C113.49 101.45 113.984 101.436 114.421 101.415C114.384 101.626 114.37 101.821 114.362 102.062C113.933 102.054 113.49 102.047 112.973 102.047C112.755 102.047 112.537 102.047 112.326 102.054C112.312 102.186 112.312 102.374 112.312 102.483V103.581H114.079C114.064 103.762 114.057 103.959 114.057 104.178H112.312V105.522C112.312 105.631 112.312 105.828 112.326 105.958C112.537 105.958 112.755 105.965 112.973 105.965C113.562 105.965 114.072 105.958 114.566 105.944C114.537 106.155 114.522 106.358 114.515 106.598Z" fill="#0C0C16"/>
<path d="M73.7345 114.133C73.2474 114.511 72.6879 114.714 72.0695 114.714C70.5795 114.714 69.5254 113.529 69.5254 112.162C69.5254 110.592 70.6594 109.349 72.2078 109.349C72.7531 109.349 73.3351 109.53 73.7198 109.807L73.5163 110.475C73.153 110.185 72.6584 110.003 72.1641 110.003C71.0588 110.003 70.2742 110.876 70.2742 112.01C70.2742 113.34 71.0886 114.059 72.1129 114.059C72.7965 114.059 73.2981 113.783 73.7857 113.325L73.7345 114.133Z" fill="#0C0C16"/>
<path d="M79.2974 114.583C79.3409 114.234 79.3559 113.304 79.3559 112.831V112.221H76.6877V113.537C76.6877 113.812 76.6944 114.38 76.7164 114.583H75.9095C75.9456 114.234 75.9607 113.304 75.9607 112.831V111.224C75.9607 110.759 75.9456 109.822 75.9095 109.472C76.2003 109.472 76.4767 109.465 76.7164 109.436C76.6944 109.647 76.6877 110.228 76.6877 110.512V111.625H79.3559V111.224C79.3559 110.759 79.3409 109.822 79.2974 109.472C79.5883 109.472 79.8714 109.465 80.1191 109.436C80.0896 109.647 80.0824 110.228 80.0824 110.512V113.537C80.0824 113.812 80.0896 114.38 80.1191 114.583H79.2974Z" fill="#0C0C16"/>
<path d="M82.7231 114.583C82.7603 114.234 82.7743 113.304 82.7743 112.831V111.224C82.7743 110.759 82.7603 109.822 82.7231 109.472C83.0148 109.472 83.2906 109.465 83.5305 109.436C83.5088 109.647 83.5013 110.228 83.5013 110.512V113.537C83.5013 113.812 83.5088 114.38 83.5305 114.583H82.7231Z" fill="#0C0C16"/>
<path d="M89.9214 114.133C89.4343 114.511 88.8743 114.714 88.2561 114.714C86.7664 114.714 85.7123 113.529 85.7123 112.162C85.7123 110.592 86.8463 109.349 88.3947 109.349C88.9397 109.349 89.5217 109.53 89.9064 109.807L89.7029 110.475C89.3399 110.185 88.8451 110.003 88.3507 110.003C87.2457 110.003 86.4611 110.876 86.4611 112.01C86.4611 113.34 87.2755 114.059 88.2998 114.059C88.9831 114.059 89.4847 113.783 89.9723 113.325L89.9214 114.133Z" fill="#0C0C16"/>
<path d="M95.6374 114.642L94.9613 113.136H92.8166L92.7952 113.195C92.6059 113.631 92.4025 114.132 92.2201 114.583H91.4208L93.1509 110.861C93.4343 110.25 93.6236 109.822 93.7833 109.4L93.9729 109.349L95.7172 113.093C95.9215 113.544 96.2046 114.132 96.437 114.583L95.6374 114.642ZM94.6927 112.54L93.8855 110.73L93.0861 112.54H94.6927Z" fill="#0C0C16"/>
<path d="M101.535 112.183C101.825 112.18 101.969 112.173 102.288 112.156C102.252 112.432 102.262 113.144 102.262 113.617V114.176C101.854 114.445 101.332 114.714 100.451 114.714C98.9613 114.714 97.8201 113.529 97.8201 112.162C97.8201 110.548 99.0192 109.349 100.59 109.349C101.201 109.349 101.804 109.545 102.204 109.807L102 110.475C101.636 110.185 101.04 110.003 100.546 110.003C99.3755 110.003 98.5686 110.832 98.5686 112.01C98.5686 113.377 99.4704 114.059 100.495 114.059C100.917 114.059 101.258 113.987 101.549 113.827V112.94C101.549 112.831 101.549 112.635 101.535 112.504V112.183Z" fill="#0C0C16"/>
<path d="M109.337 111.9C109.337 113.471 108.268 114.714 106.713 114.714C105.23 114.714 104.233 113.537 104.233 112.162C104.233 110.592 105.302 109.349 106.858 109.349C108.341 109.349 109.337 110.526 109.337 111.9ZM108.589 112.017C108.589 110.73 107.803 109.966 106.778 109.966C105.702 109.966 104.982 110.912 104.982 112.046C104.982 113.333 105.767 114.097 106.792 114.097C107.869 114.097 108.589 113.151 108.589 112.017Z" fill="#0C0C16"/>
</svg>
