<svg width="184" height="184" viewBox="0 0 184 184" fill="none" xmlns="http://www.w3.org/2000/svg">
<path d="M68.2139 73.6892L66.6611 78.2943H69.7113L68.2139 73.6892ZM65.6628 81.124L64.7685 83.58H60.7825L66.3016 69.1689H70.2876L75.5002 83.58H71.5141L70.6541 81.124H65.6628Z" fill="#0C0C16"/>
<path d="M83.7424 72.9681C83.0769 72.4132 82.1896 72.0249 81.3022 72.0249C80.6367 72.0249 79.7494 72.4132 79.7494 73.2455C79.7494 74.0777 80.7476 74.4106 81.3577 74.6326L82.3005 74.91C84.297 75.5203 85.7944 76.519 85.7944 78.8493C85.7944 80.2919 85.4616 81.7344 84.3524 82.7332C83.2433 83.6764 81.7459 84.0648 80.3594 84.0648C78.5848 84.0648 76.8101 83.4544 75.3682 82.4002L76.921 79.4041C77.8638 80.2364 78.9175 80.9022 80.1931 80.9022C81.0804 80.9022 81.9677 80.4583 81.9677 79.4596C81.9677 78.4054 80.5258 78.0725 79.7494 77.7951C77.4201 77.1293 75.9227 76.519 75.9227 73.7448C75.8673 70.7487 77.9193 68.8623 80.7476 68.8623C82.1896 68.8623 83.9088 69.3062 85.1843 70.0275L83.7424 72.9681Z" fill="#0C0C16"/>
<path d="M90.5248 75.9146H91.2913C92.6223 75.9146 93.8926 75.8532 93.8926 74.0777C93.8926 72.2468 92.7332 72.2351 91.2913 72.2351H90.5248V75.9146ZM86.9986 69.1689H92.6711C95.7213 69.1689 97.7747 70.6932 97.7747 73.9667C97.7747 77.3512 96.041 78.6741 92.8244 78.6741H90.8314V83.58H86.8453V69.1689H86.9986Z" fill="#0C0C16"/>
<path d="M102.176 72.5417V74.6881H106.469V78.0609H102.176V80.5138H106.469V83.58H98.4968V69.1689H106.469V72.5417H102.176Z" fill="#0C0C16"/>
<path d="M107.696 69.1689H111.682L118.427 78.0609V69.1689H122.107V83.58H118.427L111.682 74.8414V83.58H107.696V69.1689Z" fill="#0C0C16"/>
<path d="M67.2211 85.7266L62.9285 85.7266V100.138H67.2211V85.7266Z" fill="#0C0C16"/>
<path d="M73.3541 96.7648H74.4272C76.9229 96.7648 78.9732 95.6055 78.9732 92.7758C78.9732 90.2236 77.0892 88.7927 74.4272 88.7927H73.3541V96.7648ZM69.0614 85.7266L75.1938 85.7266C79.6304 85.7266 83.2435 88.781 83.2435 92.8313C83.2435 96.8816 79.6304 100.138 75.1938 100.138H69.0614V85.7266Z" fill="#0C0C16"/>
<path d="M88.3781 88.7927V91.2457H93.284V94.3119H88.3781V96.7648H93.284V100.138H84.0854V85.7266H93.284V88.7927H88.3781Z" fill="#0C0C16"/>
<path d="M102.432 90.0572L100.657 94.6623H104.096L102.432 90.0572ZM99.7228 97.3781L98.4688 100.138H93.8971L100.029 85.7266H104.629L110.761 100.138H106.162L104.935 97.3781H99.7228Z" fill="#0C0C16"/>
<path d="M120.179 89.2808C119.402 88.7259 118.459 88.3375 117.406 88.3375C116.629 88.3375 115.631 88.7259 115.631 89.5582C115.631 90.3904 116.74 90.7233 117.461 90.9453L118.515 91.2227C120.733 91.833 122.452 92.8317 122.452 95.162C122.452 96.6046 122.064 98.0471 120.789 99.0458C119.513 99.989 117.849 100.377 116.241 100.377C114.244 100.377 112.248 99.7671 110.64 98.7129L112.414 95.7168C113.468 96.5491 114.688 97.2149 116.075 97.2149C117.073 97.2149 118.071 96.771 118.071 95.7723C118.071 94.7181 116.463 94.3852 115.575 94.1078C112.969 93.442 111.25 92.8317 111.25 90.0575C111.25 87.1169 113.579 85.2305 116.74 85.2305C118.348 85.2305 120.345 85.6743 121.731 86.3956L120.179 89.2808Z" fill="#0C0C16"/>
<path d="M62.6224 102.591V115.162H63.5423V108.723H67.8349V107.803H63.5423V103.511H67.8349V102.591H62.6224Z" fill="#0C0C16"/>
<path d="M70.594 102.591V115.162H77.033V114.242H71.5138V108.723H76.7264V107.803H71.5138V103.511H77.033V102.591H70.594Z" fill="#0C0C16"/>
<path d="M85.2478 104.759C84.6864 103.869 83.8443 103.313 82.6092 103.313C81.2057 103.313 80.139 104.37 80.139 105.649C80.139 106.929 81.4302 107.485 82.4969 107.93L85.0233 109.154C86.0338 109.766 86.5391 110.489 86.5391 111.601C86.5391 113.659 84.5741 115.314 82.4408 115.314C80.5881 115.314 79.1846 114.104 78.567 112.547L79.2969 112.213C79.8583 113.492 80.8688 114.438 82.4408 114.438C84.1812 114.438 85.697 113.159 85.697 111.546C85.697 110.155 84.1812 109.599 83.0583 109.042L80.7004 107.874C79.8021 107.374 79.353 106.65 79.353 105.705C79.353 103.869 80.7414 102.437 82.7064 102.437C84.0538 102.437 85.304 103.257 85.9215 104.314L85.2478 104.759Z" fill="#0C0C16"/>
<path d="M86.8453 102.591V103.511H90.2181V115.162H91.138V103.511H94.5108V102.591H86.8453Z" fill="#0C0C16"/>
<path d="M96.9642 102.591H96.0443V115.162H96.9642V102.591Z" fill="#0C0C16"/>
<path d="M107.695 102.591L103.92 113.322H103.862L100.029 102.591H99.1095L103.874 115.469L108.615 102.591H107.695Z" fill="#0C0C16"/>
<path d="M112.47 104.371L115.053 110.255H109.994L112.47 104.371ZM107.035 115.079H107.867L109.534 111.175H115.36L116.893 115.161H117.813L112.447 102.437L107.035 115.079Z" fill="#0C0C16"/>
<path d="M119.347 102.897V115.162H123.333V114.242H120.267V102.897H119.347Z" fill="#0C0C16"/>
</svg>
