<svg width="184" height="184" viewBox="0 0 184 184" fill="none" xmlns="http://www.w3.org/2000/svg">
<path d="M163.543 94.97H23.5281V97.193H163.543V94.97Z" fill="#0C0C16"/>
<path d="M163.543 99.416H23.5281V101.639H163.543V99.416Z" fill="#0C0C16"/>
<path d="M26.4622 84.9471V92.8251H23.9193V84.9471H20.7505V82.6462H29.6701V84.9471H26.4622Z" fill="#0C0C16"/>
<path d="M39.6461 88.9251H32.9563V92.8251H30.4135V82.6462H32.9563V86.5461H39.6461V82.6462H42.189V92.8251H39.6461V88.9251Z" fill="#0C0C16"/>
<path d="M43.3626 92.8251V82.6462H50.6001V84.9471H45.9055V86.6631H49.7003V88.8081H45.9055V90.5241H50.6001V92.8251H43.3626Z" fill="#0C0C16"/>
<path d="M57.4463 86.3121H57.0551V92.8251H54.5122V82.6462H57.4854L63.4318 89.0031H63.7839V82.6462H66.3268V92.8251H63.471L57.4463 86.3121Z" fill="#0C0C16"/>
<path d="M67.5005 92.8251V82.6462H74.777V84.9471H70.0433V86.6631H73.8772V88.8081H70.0433V90.5241H74.777V92.8251H67.5005Z" fill="#0C0C16"/>
<path d="M74.9726 82.6462H77.8285L80.0193 90.7581H80.6452L82.6404 82.6462H87.4132L89.7214 90.7581H90.3082L92.2251 82.6462H95.1201L92.3034 92.8251H87.7653L85.4571 84.7131H84.7138L82.6013 92.8251H78.0632L74.9726 82.6462Z" fill="#0C0C16"/>
<path d="M98.0542 85.7661C98.0542 83.6212 99.7755 82.4512 102.005 82.4512C103.296 82.4512 104.705 82.7632 105.487 83.2312L105.018 85.3761C104.157 84.8691 102.905 84.5961 101.927 84.5961C101.145 84.5961 100.597 84.9081 100.597 85.4151C100.597 87.0531 105.8 86.1561 105.8 89.5491C105.8 91.3821 104.509 92.9811 101.81 92.9811C100.636 92.9811 99.3452 92.8251 98.2889 92.3181L98.4063 89.9781C99.4626 90.4851 100.636 90.7581 101.888 90.7581C103.023 90.7581 103.296 90.3681 103.296 89.9001C103.257 88.4571 98.0542 89.3541 98.0542 85.7661Z" fill="#0C0C16"/>
<path d="M114.211 92.6691C113.39 92.9811 112.725 93.0201 111.551 93.0201C108.382 93.0201 106.231 90.5631 106.231 87.7161C106.231 84.8301 108.46 82.4512 111.786 82.4512C112.646 82.4512 113.585 82.4902 114.368 82.7242L114.133 85.0251C113.233 84.7521 112.607 84.7131 111.864 84.7131C109.986 84.7131 108.891 85.8051 108.891 87.6771C108.891 89.5491 110.143 90.6411 111.942 90.6411C113.077 90.6411 113.429 90.5241 114.211 90.2901V92.6691Z" fill="#0C0C16"/>
<path d="M124.618 88.9251H117.928V92.8251H115.385V82.6462H117.928V86.5461H124.618V82.6462H127.16V92.8251H124.618V88.9251Z" fill="#0C0C16"/>
<path d="M133.85 82.4512C137.332 82.4512 139.875 84.2452 139.875 87.6771C139.875 91.2261 137.136 93.0201 133.85 93.0201C130.525 93.0201 127.786 91.2261 127.786 87.7161C127.786 84.3621 130.251 82.4512 133.85 82.4512ZM133.811 90.8751C135.806 90.8751 137.254 89.8611 137.254 87.6381C137.254 85.6101 135.806 84.5961 133.811 84.5961C131.816 84.5961 130.368 85.5711 130.368 87.7161C130.408 89.8611 131.855 90.8751 133.811 90.8751Z" fill="#0C0C16"/>
<path d="M146.408 82.4512C149.89 82.4512 152.433 84.2452 152.433 87.6771C152.433 91.2261 149.694 93.0201 146.408 93.0201C143.083 93.0201 140.344 91.2261 140.344 87.7161C140.344 84.3621 142.809 82.4512 146.408 82.4512ZM146.369 90.8751C148.364 90.8751 149.812 89.8611 149.812 87.6381C149.812 85.6101 148.364 84.5961 146.369 84.5961C144.374 84.5961 142.926 85.5711 142.926 87.7161C142.965 89.8611 144.374 90.8751 146.369 90.8751Z" fill="#0C0C16"/>
<path d="M153.137 82.6462H155.68V90.4071H163.543V92.8251H153.137V82.6462Z" fill="#0C0C16"/>
</svg>
