<svg width="936" height="639" viewBox="0 0 936 639" fill="none" xmlns="http://www.w3.org/2000/svg">
<path d="M52.0026 413.493C57.0159 413.493 59.8897 409.31 59.8897 402.317C59.8897 395.324 57.0159 391.141 52.0026 391.141C46.9573 391.141 44.0835 395.324 44.0835 402.317C44.0835 409.31 46.9573 413.493 52.0026 413.493ZM52.0026 410.587C49.001 410.587 47.3086 407.618 47.3086 402.317C47.3086 397.08 49.001 394.079 52.0026 394.079C54.9722 394.079 56.6646 397.08 56.6646 402.317C56.6646 407.618 54.9722 410.587 52.0026 410.587ZM66.7186 412.567C66.7186 412.886 66.9741 413.174 67.3253 413.174H69.2732C69.5925 413.174 69.8479 412.886 69.8479 412.567V392.067C69.8479 391.748 69.5925 391.46 69.2732 391.46H67.7085L63.1742 395.579C63.0465 395.707 62.9826 395.963 63.0784 396.218L63.4616 397.336C63.5574 397.623 63.8767 397.687 64.1641 397.559L66.7186 396.346V412.567Z" fill="#FDFCFC"/>
<path d="M173.741 292.753C178.754 292.753 181.628 288.57 181.628 281.577C181.628 274.584 178.754 270.401 173.741 270.401C168.696 270.401 165.822 274.584 165.822 281.577C165.822 288.57 168.696 292.753 173.741 292.753ZM173.741 289.847C170.739 289.847 169.047 286.877 169.047 281.577C169.047 276.34 170.739 273.338 173.741 273.338C176.71 273.338 178.403 276.34 178.403 281.577C178.403 286.877 176.71 289.847 173.741 289.847ZM184.788 291.827C184.788 292.146 185.044 292.434 185.395 292.434H197.753C198.072 292.434 198.36 292.146 198.36 291.827V290.294C198.36 289.975 198.072 289.687 197.753 289.687H189.61C191.494 287.548 193.729 284.93 195.422 282.886C197.146 280.81 198.487 279.118 198.487 276.659C198.487 273.306 196.06 270.401 191.494 270.401C187.694 270.401 185.299 273.53 185.299 273.53C185.076 273.785 185.14 274.169 185.331 274.36L186.417 275.446C186.672 275.701 187.024 275.701 187.279 275.446C188.141 274.52 189.578 273.306 191.335 273.306C194.145 273.306 195.262 275.158 195.262 276.787C195.262 278.064 194.432 279.661 192.835 281.449C190.472 284.259 187.151 288.314 184.788 290.997V291.827Z" fill="#FDFCFC"/>
<path d="M331.403 237.868C336.416 237.868 339.29 233.685 339.29 226.692C339.29 219.699 336.416 215.516 331.403 215.516C326.358 215.516 323.484 219.699 323.484 226.692C323.484 233.685 326.358 237.868 331.403 237.868ZM331.403 234.962C328.401 234.962 326.709 231.993 326.709 226.692C326.709 221.455 328.401 218.454 331.403 218.454C334.373 218.454 336.065 221.455 336.065 226.692C336.065 231.993 334.373 234.962 331.403 234.962ZM342.705 235.026C343.407 235.856 345.291 237.868 349.251 237.868C353.657 237.868 356.467 235.25 356.467 231.769C356.467 229.023 354.104 227.107 352.603 226.468V226.373C354.04 225.702 355.892 223.818 355.892 221.359C355.892 217.783 352.923 215.516 349.219 215.516C345.738 215.516 343.311 218.326 343.311 218.326C343.088 218.549 343.056 218.933 343.311 219.156L344.493 220.21C344.78 220.465 345.131 220.401 345.323 220.146C345.962 219.443 347.111 218.358 349.027 218.358C350.911 218.358 352.667 219.699 352.667 221.838C352.667 223.722 351.166 225.255 348.165 225.255H346.377C345.93 225.255 345.738 225.447 345.738 225.926V227.299C345.738 227.746 345.994 227.969 346.345 227.969H348.133C351.55 227.969 353.178 229.789 353.178 231.705C353.178 233.845 351.262 235.154 349.187 235.154C346.824 235.154 345.036 233.43 344.844 233.174C344.589 232.887 344.301 232.855 343.982 233.11L342.736 234.26C342.513 234.451 342.513 234.803 342.705 235.026Z" fill="#FDFCFC"/>
<path d="M262.551 431.456C267.565 431.456 270.439 427.273 270.439 420.28C270.439 413.287 267.565 409.104 262.551 409.104C257.506 409.104 254.632 413.287 254.632 420.28C254.632 427.273 257.506 431.456 262.551 431.456ZM262.551 428.55C259.55 428.55 257.857 425.581 257.857 420.28C257.857 415.043 259.55 412.041 262.551 412.041C265.521 412.041 267.213 415.043 267.213 420.28C267.213 425.581 265.521 428.55 262.551 428.55ZM273.723 426.379H284.133V430.53C284.133 430.849 284.42 431.137 284.74 431.137H286.623C286.943 431.137 287.23 430.849 287.23 430.53L287.198 426.315H289.785C290.136 426.315 290.391 426.028 290.391 425.708V424.367C290.391 424.048 290.136 423.792 289.785 423.792H287.198V409.679C287.198 409.327 286.911 409.072 286.592 409.072H285.41C285.282 409.072 285.027 409.168 284.931 409.263L273.116 423.856V425.772C273.116 426.091 273.372 426.379 273.723 426.379ZM276.565 423.729L284.261 414.341V423.729H276.565Z" fill="#FDFCFC"/>
<path d="M391.276 528.251C396.289 528.251 399.163 524.068 399.163 517.075C399.163 510.082 396.289 505.899 391.276 505.899C386.231 505.899 383.357 510.082 383.357 517.075C383.357 524.068 386.231 528.251 391.276 528.251ZM391.276 525.345C388.274 525.345 386.582 522.376 386.582 517.075C386.582 511.838 388.274 508.836 391.276 508.836C394.246 508.836 395.938 511.838 395.938 517.075C395.938 522.376 394.246 525.345 391.276 525.345ZM403.31 525.601C404.108 526.559 406.056 528.251 409.536 528.251C413.911 528.251 417.104 524.93 417.104 520.939C417.104 516.756 414.454 514.041 409.76 514.041H406.535V508.996H414.135C414.486 508.996 414.741 508.709 414.741 508.389V506.825C414.741 506.505 414.486 506.218 414.135 506.218H404.268C403.917 506.218 403.661 506.505 403.661 506.825V515.766C403.661 516.277 404.012 516.883 404.651 516.883H409.536C412.506 516.883 413.975 518.735 413.975 520.971C413.975 523.238 412.251 525.473 409.632 525.473C407.205 525.473 405.417 523.685 405.194 523.397C404.938 523.11 404.683 523.174 404.427 523.397C404.012 523.749 403.661 524.164 403.246 524.515C402.863 524.898 402.895 525.122 403.31 525.601Z" fill="#FDFCFC"/>
<path d="M805.391 264.812C810.405 264.812 813.278 260.628 813.278 253.635C813.278 246.642 810.405 242.459 805.391 242.459C800.346 242.459 797.472 246.642 797.472 253.635C797.472 260.628 800.346 264.812 805.391 264.812ZM805.391 261.906C802.39 261.906 800.697 258.936 800.697 253.635C800.697 248.399 802.39 245.397 805.391 245.397C808.361 245.397 810.053 248.399 810.053 253.635C810.053 258.936 808.361 261.906 805.391 261.906ZM816.978 255.871C816.978 260.788 819.405 264.812 824.514 264.812C828.378 264.812 831.635 261.523 831.635 257.499C831.635 253.093 828.346 250.57 824.961 250.57C822.822 250.57 820.969 251.592 820.714 251.751C821.768 247.824 826.845 245.173 828.314 244.694C828.92 244.503 829.048 244.152 828.889 243.768L828.346 242.459C828.218 242.108 827.931 241.948 827.547 242.076C824.61 243.194 816.978 246.962 816.978 255.871ZM824.482 261.938C821.001 261.938 819.82 258.297 820.075 255.615C820.267 255.04 821.927 253.188 824.45 253.188C826.813 253.188 828.697 255.136 828.697 257.531C828.697 259.926 826.845 261.938 824.482 261.938Z" fill="#FDFCFC"/>
<path d="M780.444 593.11C785.457 593.11 788.331 588.927 788.331 581.934C788.331 574.941 785.457 570.758 780.444 570.758C775.399 570.758 772.525 574.941 772.525 581.934C772.525 588.927 775.399 593.11 780.444 593.11ZM780.444 590.205C777.442 590.205 775.75 587.235 775.75 581.934C775.75 576.697 777.442 573.696 780.444 573.696C783.414 573.696 785.106 576.697 785.106 581.934C785.106 587.235 783.414 590.205 780.444 590.205ZM792.254 586.979C792.254 590.46 795.096 593.11 799.567 593.11C804.197 593.11 807.007 590.46 807.007 586.979C807.007 584.233 804.612 582.317 803.143 581.647V581.519C804.516 580.817 806.432 579.06 806.432 576.602C806.432 573.089 803.526 570.758 799.599 570.758C795.767 570.758 792.829 573.089 792.829 576.602C792.829 579.092 794.745 580.849 796.118 581.551V581.647C794.937 582.19 792.254 584.201 792.254 586.979ZM799.63 580.146C797.14 579.763 796.054 578.454 796.054 576.729C796.054 574.781 797.619 573.376 799.535 573.376C801.642 573.376 803.207 574.781 803.207 576.729C803.207 578.422 802.089 579.795 799.63 580.146ZM795.575 587.043C795.575 585.351 797.044 583.595 799.63 583.211C802.217 583.595 803.686 585.351 803.686 587.043C803.686 589.183 801.866 590.524 799.599 590.524C797.491 590.524 795.575 589.151 795.575 587.043Z" fill="#FDFCFC"/>
<path d="M676.667 471.372C681.68 471.372 684.554 467.189 684.554 460.196C684.554 453.203 681.68 449.02 676.667 449.02C671.621 449.02 668.748 453.203 668.748 460.196C668.748 467.189 671.621 471.372 676.667 471.372ZM676.667 468.466C673.665 468.466 671.973 465.497 671.973 460.196C671.973 454.959 673.665 451.958 676.667 451.958C679.636 451.958 681.329 454.959 681.329 460.196C681.329 465.497 679.636 468.466 676.667 468.466ZM688.738 470.446C688.738 470.765 689.058 471.053 689.473 471.053H690.942C691.74 471.053 691.9 470.829 692.187 470.191L701.575 450.169V449.946C701.575 449.626 701.288 449.339 700.968 449.339H687.908C687.589 449.339 687.301 449.626 687.301 449.946V451.542C687.301 451.862 687.589 452.149 687.908 452.149H697.36L688.738 470.095V470.446Z" fill="#FDFCFC"/>
<circle cx="14.968" cy="402.14" r="14.968" fill="#FDFCFC"/>
<circle cx="132.718" cy="282.398" r="14.968" fill="#FDFCFC"/>
<circle cx="292.376" cy="227.513" r="14.968" fill="#FDFCFC"/>
<circle cx="222.527" cy="421.101" r="14.968" fill="#FDFCFC"/>
<circle cx="352.249" cy="519.89" r="14.968" fill="#FDFCFC"/>
<circle cx="767.359" cy="252.46" r="14.968" fill="#FDFCFC"/>
<circle cx="639.632" cy="460.019" r="14.968" fill="#FDFCFC"/>
<circle cx="743.415" cy="581.757" r="14.968" fill="#FDFCFC"/>
<circle cx="911.058" cy="416.111" r="14.968" fill="#FDFCFC"/>
<path fill-rule="evenodd" clip-rule="evenodd" d="M301.138 349.627C317.138 333.627 326.127 311.926 326.127 289.298C326.127 266.671 317.138 244.97 301.138 228.97C285.137 212.969 263.436 203.981 240.809 203.981C218.348 203.981 196.801 212.837 180.836 228.616L180.835 228.615L19.9579 389.491L26.3083 395.842L186.83 235.32L186.836 235.326C201.15 221.011 220.565 212.969 240.809 212.969C261.053 212.969 280.467 221.011 294.782 235.326C309.096 249.64 317.138 269.055 317.138 289.298C317.138 309.5 309.13 328.876 294.871 343.181L294.87 343.18L185.693 452.356L192.044 458.706L301.13 349.62L301.138 349.627Z" fill="#FDFCFC"/>
<path fill-rule="evenodd" clip-rule="evenodd" d="M156.808 516.572C157.861 492.891 168.278 469.762 185.768 452.272L192.124 458.628C176.477 474.275 167.157 494.968 166.215 516.154C165.272 537.34 172.785 557.284 187.099 571.599C201.414 585.913 221.358 593.425 242.544 592.483C263.536 591.549 284.044 582.391 299.64 567.001L299.603 566.964L475.456 391.11L481.807 397.461L306.382 572.886L306.426 572.93C288.936 590.42 265.806 600.837 242.125 601.89C218.445 602.943 196.152 594.546 180.152 578.546C164.152 562.546 155.754 540.253 156.808 516.572Z" fill="#FDFCFC"/>
<path fill-rule="evenodd" clip-rule="evenodd" d="M716.536 208.523C709.822 206.844 702.875 205.975 695.838 205.975C673.378 205.975 651.831 214.831 635.866 230.61L635.865 230.609L635.722 230.752C635.651 230.822 635.58 230.893 635.51 230.964L635.51 230.964L474.988 391.486L481.339 397.836L641.86 237.314L641.866 237.32C656.18 223.005 675.595 214.963 695.838 214.963C701.975 214.963 708.035 215.702 713.9 217.131C714.702 214.228 715.581 211.358 716.536 208.523Z" fill="#FDFCFC"/>
<circle cx="750.398" cy="230.507" r="3.99148" fill="#FDFCFC"/>
<circle cx="773.347" cy="268.427" r="3.99148" fill="#FDFCFC"/>
<circle cx="775.343" cy="293.372" r="3.99148" fill="#FDFCFC"/>
<circle cx="770.357" cy="319.318" r="3.99148" fill="#FDFCFC"/>
<circle cx="757.38" cy="341.271" r="3.99148" fill="#FDFCFC"/>
<circle cx="739.421" cy="359.234" r="3.99148" fill="#FDFCFC"/>
<circle cx="720.464" cy="378.195" r="3.99148" fill="#FDFCFC"/>
<circle cx="702.501" cy="396.154" r="3.99148" fill="#FDFCFC"/>
<circle cx="683.542" cy="415.113" r="3.99148" fill="#FDFCFC"/>
<circle cx="665.575" cy="433.075" r="3.99148" fill="#FDFCFC"/>
<circle cx="618.677" cy="493.945" r="3.99148" fill="#FDFCFC"/>
<circle cx="615.687" cy="519.888" r="3.99148" fill="#FDFCFC"/>
<circle cx="619.675" cy="544.835" r="3.99148" fill="#FDFCFC"/>
<circle cx="632.648" cy="566.788" r="3.99148" fill="#FDFCFC"/>
<circle cx="651.609" cy="584.751" r="3.99148" fill="#FDFCFC"/>
<circle cx="675.554" cy="594.728" r="3.99148" fill="#FDFCFC"/>
<circle cx="701.503" cy="596.726" r="3.99148" fill="#FDFCFC"/>
<circle cx="726.448" cy="591.738" r="3.99148" fill="#FDFCFC"/>
<circle cx="766.365" cy="558.806" r="3.99148" fill="#FDFCFC"/>
<circle cx="785.322" cy="540.843" r="3.99148" fill="#FDFCFC"/>
<circle cx="803.281" cy="521.886" r="3.99148" fill="#FDFCFC"/>
<circle cx="821.249" cy="503.925" r="3.99148" fill="#FDFCFC"/>
<circle cx="840.206" cy="485.962" r="3.99148" fill="#FDFCFC"/>
<circle cx="858.169" cy="467.001" r="3.99148" fill="#FDFCFC"/>
<circle cx="877.126" cy="449.042" r="3.99148" fill="#FDFCFC"/>
<circle cx="895.089" cy="431.079" r="3.99148" fill="#FDFCFC"/>
<path fill-rule="evenodd" clip-rule="evenodd" d="M584.958 185.606C630.003 178.99 664.582 140.183 664.582 93.3007C664.582 41.7722 622.81 0 571.281 0C519.753 0 477.98 41.7722 477.98 93.3007C477.98 139.11 510.994 177.208 554.527 185.101L570.283 226.517L584.958 185.606ZM571.281 176.112C525.546 176.112 488.47 139.036 488.47 93.3007C488.47 47.5652 525.546 10.4893 571.281 10.4893C617.017 10.4893 654.093 47.5652 654.093 93.3007C654.093 139.036 617.017 176.112 571.281 176.112Z" fill="#FDFCFC"/>
<circle cx="932.007" cy="394.158" r="3.99148" fill="#FDFCFC"/>
<circle cx="728.447" cy="215.54" r="13.9702" stroke="#FDFCFC" stroke-width="1.99574"/>
<circle cx="570.781" cy="301.359" r="13.9702" fill="#0C0C16" stroke="#FDFCFC" stroke-width="1.99574"/>
<circle cx="570.78" cy="301.358" r="4.98934" stroke="#FDFCFC" stroke-width="1.99574"/>
</svg>
